<?xml version="1.0" standalone="no"?>
<!DOCTYPE svg PUBLIC "-//W3C//DTD SVG 20010904//EN"
 "http://www.w3.org/TR/2001/REC-SVG-20010904/DTD/svg10.dtd">
<svg version="1.0" xmlns="http://www.w3.org/2000/svg"
 width="3204.000000pt" height="2650.000000pt" viewBox="0 0 3204.000000 2650.000000"
 preserveAspectRatio="xMidYMid meet">

<g transform="translate(0.000000,2650.000000) scale(0.100000,-0.100000)"
fill="#000000" stroke="none">
<path d="M14570 23455 c-36 -9 -87 -15 -115 -15 -94 2 -240 -12 -284 -26 -24
-7 -47 -11 -52 -8 -5 3 -35 0 -66 -7 -32 -6 -83 -15 -113 -19 -30 -5 -84 -13
-120 -20 -36 -6 -108 -17 -160 -24 -98 -14 -195 -40 -204 -55 -3 -5 -30 -12
-61 -16 -30 -3 -57 -11 -60 -16 -4 -5 -16 -9 -28 -9 -25 0 -157 -36 -202 -55
-16 -7 -46 -17 -65 -23 -19 -6 -91 -29 -160 -52 -69 -23 -144 -46 -167 -51
-24 -4 -53 -15 -66 -24 -13 -8 -49 -24 -80 -34 -31 -11 -80 -31 -108 -45 -28
-15 -55 -24 -59 -21 -5 3 -12 -1 -17 -8 -10 -17 -138 -79 -223 -108 -69 -23
-322 -151 -355 -179 -21 -18 -108 -60 -124 -60 -15 0 -103 -49 -126 -69 -11
-10 -30 -24 -43 -30 -12 -7 -52 -34 -88 -61 -36 -27 -85 -58 -109 -70 -24 -12
-49 -28 -55 -36 -7 -7 -18 -14 -24 -14 -6 0 -22 -12 -35 -25 -13 -14 -31 -25
-41 -25 -10 0 -29 -13 -43 -29 -13 -16 -37 -36 -53 -45 -29 -15 -70 -49 -244
-198 -49 -43 -94 -78 -99 -78 -5 0 -31 -22 -58 -49 -26 -27 -66 -60 -88 -74
-47 -29 -261 -238 -325 -317 -25 -30 -79 -89 -121 -130 -42 -41 -98 -104 -124
-140 -27 -36 -58 -75 -69 -86 -12 -12 -46 -57 -76 -100 -30 -42 -65 -87 -77
-99 -13 -12 -23 -26 -23 -31 0 -9 -24 -44 -131 -185 -83 -110 -124 -171 -154
-225 -14 -27 -41 -74 -58 -104 -18 -30 -40 -73 -49 -95 -9 -22 -43 -92 -77
-155 -33 -63 -74 -142 -91 -175 -16 -33 -34 -67 -39 -75 -21 -34 -54 -108 -71
-160 -10 -30 -39 -97 -64 -147 -25 -51 -46 -100 -46 -108 0 -24 -89 -295 -117
-355 -27 -59 -37 -86 -58 -165 -7 -27 -25 -81 -40 -120 -32 -83 -85 -257 -92
-303 -3 -18 -9 -35 -14 -38 -5 -3 -9 -14 -9 -25 0 -11 -4 -17 -10 -14 -6 3 -7
-1 -4 -9 3 -8 -1 -37 -9 -63 -8 -26 -20 -75 -27 -108 -7 -33 -22 -91 -32 -130
-11 -38 -35 -131 -54 -205 -19 -74 -38 -153 -44 -175 -6 -22 -19 -78 -29 -125
-11 -47 -33 -139 -50 -205 -44 -177 -81 -335 -87 -375 -3 -19 -15 -66 -25
-105 -11 -38 -27 -104 -34 -145 -8 -41 -19 -95 -25 -120 -5 -25 -15 -83 -20
-129 -6 -47 -14 -90 -19 -95 -8 -10 -21 -58 -27 -96 -22 -155 -53 -309 -65
-325 -10 -14 -22 -138 -20 -205 2 -58 -14 -125 -36 -151 -7 -9 -10 -19 -6 -23
4 -4 2 -10 -4 -14 -7 -4 -20 -50 -29 -102 -9 -52 -19 -102 -24 -110 -4 -8 -11
-37 -14 -63 -4 -27 -13 -72 -21 -100 -14 -53 -21 -109 -31 -227 -8 -92 -12
-117 -28 -190 -9 -36 -15 -79 -16 -96 0 -17 -3 -34 -8 -38 -8 -8 -23 -94 -52
-294 -10 -73 -21 -136 -24 -140 -2 -4 -7 -52 -10 -106 -4 -54 -9 -102 -12
-107 -2 -5 -9 -48 -15 -96 -6 -48 -12 -101 -14 -118 -2 -16 -6 -64 -10 -105
-3 -41 -9 -97 -14 -125 -5 -27 -9 -82 -10 -122 -1 -39 -6 -87 -12 -105 -5 -18
-12 -71 -15 -118 -3 -47 -9 -101 -15 -120 -9 -35 -24 -173 -35 -332 -3 -46
-10 -101 -16 -123 -6 -22 -12 -96 -13 -165 -7 -259 -15 -380 -25 -400 -13 -24
-30 -185 -35 -330 -6 -152 -14 -220 -32 -262 -17 -40 -46 -57 -68 -38 -11 9
-13 7 -9 -7 3 -13 -6 -23 -31 -35 -19 -10 -40 -16 -47 -14 -7 1 -10 1 -5 -1
13 -8 -3 -22 -18 -16 -8 3 -15 0 -15 -5 0 -6 -9 -13 -20 -17 -11 -3 -38 -22
-61 -41 -22 -19 -48 -34 -57 -34 -10 0 -28 -9 -42 -20 -14 -11 -33 -20 -42
-20 -9 0 -20 -4 -23 -10 -7 -11 -145 -94 -160 -95 -19 -2 -103 -43 -109 -54
-4 -6 -18 -11 -31 -11 -17 0 -32 -11 -47 -35 -13 -19 -31 -35 -40 -35 -9 0
-19 -4 -22 -8 -6 -10 -72 -7 -100 4 -13 5 -17 4 -13 -3 4 -7 -5 -14 -23 -18
-17 -4 -52 -28 -78 -54 -39 -39 -61 -51 -125 -71 -46 -14 -82 -31 -88 -42 -10
-19 -67 -38 -115 -38 -32 0 -114 -25 -124 -38 -10 -14 -50 -32 -71 -32 -12 0
-39 -14 -60 -31 -21 -17 -45 -29 -51 -26 -7 2 -17 -2 -23 -9 -18 -23 -149 -91
-190 -98 -22 -4 -47 -14 -56 -22 -9 -8 -20 -14 -25 -12 -5 1 -30 -12 -56 -30
-26 -17 -55 -32 -66 -32 -10 0 -27 -9 -37 -20 -10 -11 -34 -23 -54 -26 -20 -4
-41 -11 -48 -16 -7 -5 -22 -8 -35 -7 -25 3 -138 -48 -138 -62 0 -5 -11 -9 -25
-9 -14 0 -25 -4 -25 -10 0 -5 -11 -10 -24 -10 -13 0 -37 -6 -53 -14 -15 -8
-43 -20 -62 -27 -18 -7 -48 -25 -65 -41 -17 -15 -42 -28 -56 -28 -14 0 -30 -4
-36 -9 -5 -6 -22 -12 -39 -15 -16 -3 -43 -15 -59 -27 -16 -12 -37 -22 -45 -22
-9 0 -22 -4 -29 -10 -7 -5 -15 -7 -19 -4 -3 4 -11 2 -18 -3 -15 -12 -134 -50
-159 -50 -11 0 -39 -12 -64 -26 -24 -14 -52 -24 -62 -21 -11 3 -20 2 -22 -2
-6 -14 -76 -51 -96 -51 -11 0 -24 -4 -27 -10 -3 -5 -15 -10 -25 -10 -15 0 -63
-22 -130 -59 -20 -11 -79 -31 -110 -37 -14 -3 -38 -14 -53 -25 -16 -11 -52
-29 -80 -38 -62 -22 -99 -43 -155 -92 l-42 -36 26 -39 c35 -51 34 -51 44 -34
7 12 13 12 33 1 20 -11 32 -11 61 -1 19 6 41 8 48 3 15 -9 177 -11 180 -2 2 3
15 9 31 13 19 4 26 3 25 -6 -3 -15 50 -18 70 -4 16 11 30 14 137 21 44 4 82
10 85 14 3 4 21 6 40 6 35 -2 140 7 239 21 45 6 53 5 46 -7 -7 -12 -6 -12 7
-1 22 18 52 22 191 27 123 4 247 17 266 29 12 8 66 16 136 21 28 1 91 6 140 9
50 4 120 8 157 10 37 2 73 8 80 13 13 10 31 13 75 13 12 0 25 5 28 10 3 5 12
7 20 3 9 -3 21 -1 28 5 6 6 49 10 94 10 85 0 129 6 175 23 18 8 32 7 46 0 16
-8 25 -6 45 9 21 17 30 18 50 9 19 -9 30 -8 48 3 15 9 49 13 89 13 36 -1 71 3
78 8 18 14 133 19 182 8 29 -6 42 -5 50 4 13 16 113 43 163 44 20 0 45 4 55 9
9 5 46 8 82 7 36 -1 69 1 75 4 5 2 27 6 50 7 22 1 57 5 78 9 33 7 37 5 38 -14
1 -11 2 -27 3 -33 1 -7 7 -19 13 -26 11 -11 10 -16 -2 -28 -8 -9 -15 -20 -15
-26 0 -6 -11 -26 -26 -45 -14 -18 -23 -37 -20 -42 3 -5 -8 -27 -24 -50 -17
-22 -30 -45 -30 -49 0 -5 -18 -33 -40 -62 -22 -29 -40 -60 -40 -69 0 -8 -8
-23 -17 -34 -10 -10 -23 -37 -29 -60 -6 -23 -15 -41 -21 -40 -6 1 -14 -21 -17
-50 -4 -28 -11 -54 -15 -57 -17 -12 -51 -70 -51 -87 0 -21 -57 -113 -69 -113
-5 0 -30 -44 -57 -97 -26 -54 -59 -115 -72 -135 -13 -21 -32 -52 -41 -70 -9
-18 -23 -32 -30 -30 -10 2 -12 -6 -8 -33 3 -19 2 -35 -4 -35 -5 0 -9 -7 -9
-15 0 -8 -4 -15 -10 -15 -5 0 -10 -11 -10 -24 0 -14 -6 -31 -13 -38 -15 -15
-47 -81 -47 -97 0 -6 -3 -11 -8 -11 -4 0 -18 -21 -32 -47 -13 -27 -34 -64 -47
-83 -13 -19 -23 -44 -23 -55 0 -12 -9 -31 -20 -43 -11 -12 -20 -26 -20 -32 0
-5 -4 -10 -10 -10 -5 0 -10 -6 -10 -13 0 -21 -30 -77 -41 -77 -5 0 -9 -7 -9
-15 0 -9 -7 -18 -15 -21 -8 -4 -13 -10 -10 -14 3 -5 -13 -43 -35 -86 -22 -43
-40 -83 -40 -90 0 -6 -7 -18 -16 -25 -9 -7 -28 -38 -41 -69 -14 -30 -32 -63
-41 -72 -8 -10 -12 -18 -9 -18 4 0 -3 -18 -14 -40 -12 -22 -27 -40 -35 -40
-12 0 -12 -4 -4 -20 9 -18 7 -23 -19 -38 -17 -9 -31 -24 -31 -33 0 -9 -16 -33
-35 -53 -19 -21 -35 -44 -35 -51 0 -21 -53 -129 -67 -138 -7 -4 -13 -15 -13
-23 0 -8 -6 -17 -14 -20 -8 -3 -17 -15 -20 -27 -3 -13 -14 -32 -26 -44 -11
-12 -19 -26 -18 -30 3 -12 -32 -76 -53 -96 -11 -10 -19 -27 -19 -37 0 -11 -4
-20 -8 -20 -5 0 -17 -15 -27 -34 -11 -19 -29 -40 -42 -47 -13 -7 -23 -16 -23
-21 0 -5 4 -6 10 -3 5 3 10 1 10 -4 0 -6 -4 -11 -10 -11 -5 0 -9 -3 -9 -7 5
-32 -4 -53 -28 -65 -16 -7 -28 -21 -28 -29 0 -9 -5 -23 -11 -30 -15 -20 -44
-80 -44 -93 0 -6 -18 -47 -40 -90 -22 -44 -40 -85 -40 -91 0 -6 -13 -24 -30
-40 -16 -16 -30 -36 -30 -45 0 -9 -7 -25 -15 -36 -8 -10 -15 -27 -15 -38 0
-10 -11 -29 -25 -42 -14 -13 -25 -27 -25 -32 0 -5 -10 -21 -21 -36 -12 -15
-19 -30 -15 -33 8 -9 -24 -63 -59 -99 -16 -16 -43 -56 -59 -88 -16 -32 -35
-60 -43 -63 -7 -3 -13 -11 -13 -18 0 -7 -7 -18 -16 -26 -8 -7 -13 -21 -11 -31
3 -10 1 -18 -4 -18 -4 0 -20 -20 -34 -44 -14 -24 -32 -50 -40 -56 -8 -7 -13
-16 -10 -20 2 -4 -7 -18 -20 -30 -14 -13 -25 -32 -25 -42 0 -21 -39 -86 -64
-107 -9 -8 -16 -28 -16 -47 0 -19 -4 -34 -8 -34 -4 0 -14 -15 -20 -34 -11 -29
-10 -40 5 -70 21 -45 40 -46 59 -1 8 19 19 35 24 35 6 0 10 4 10 10 0 9 19 35
47 65 7 7 20 32 29 56 9 24 25 53 34 64 10 11 26 36 35 55 18 36 80 128 127
190 14 19 36 53 48 75 21 39 55 90 85 130 8 10 15 23 15 28 0 4 14 28 30 52
17 24 30 47 30 52 0 4 13 23 29 41 16 20 33 56 40 88 7 30 23 67 35 82 13 15
29 44 37 64 7 21 17 38 21 38 4 0 8 6 8 13 0 6 14 37 30 67 35 65 69 135 100
205 13 28 31 56 41 63 11 7 19 20 19 28 0 8 4 14 10 14 5 0 16 14 25 30 9 17
12 30 9 30 -4 0 2 11 15 23 12 13 24 34 26 47 3 13 10 27 17 31 7 5 14 13 14
19 1 5 2 14 3 20 0 5 16 27 35 47 19 21 48 67 65 102 16 34 38 70 48 80 10 9
20 25 21 36 2 11 13 28 24 38 20 20 41 63 47 95 0 4 12 19 24 32 13 14 27 38
31 53 3 15 13 27 20 27 8 0 17 15 20 35 4 19 15 40 26 48 10 7 22 26 26 42 11
43 46 117 72 149 12 16 22 33 22 38 0 6 9 21 20 35 11 14 20 32 20 40 0 14 70
126 83 131 4 2 10 21 13 43 4 22 11 42 15 45 5 3 9 14 9 25 0 10 4 19 10 19
11 0 50 81 50 104 0 9 4 16 9 16 5 0 12 13 16 30 4 16 11 30 15 30 5 0 26 34
46 75 20 42 45 80 55 86 11 5 19 18 19 29 0 10 11 32 25 48 13 16 22 32 19 34
-2 3 6 26 20 52 13 25 30 61 36 80 6 18 20 42 30 51 11 10 20 23 20 30 0 6 9
30 20 53 12 24 18 48 14 55 -4 7 -4 9 1 5 9 -8 35 36 35 58 0 8 8 14 18 14 22
0 88 96 84 124 -2 12 4 35 12 51 9 17 16 40 16 51 0 12 13 36 29 52 15 17 41
56 56 87 16 30 32 55 37 55 4 0 8 7 8 15 0 8 11 34 25 59 14 25 25 55 25 67 0
12 19 38 46 64 26 23 44 47 40 53 -4 6 5 29 19 51 14 23 25 45 25 51 0 22 41
100 52 100 6 0 21 9 32 19 19 18 108 34 103 20 -1 -4 7 -17 18 -29 22 -24 21
-2 17 -395 -1 -220 0 -182 -8 -358 -5 -98 -3 -178 6 -239 9 -71 9 -92 0 -98
-7 -4 -8 -10 -3 -13 7 -5 9 -160 2 -232 -2 -21 8 -190 11 -190 6 0 28 -251 28
-320 1 -33 6 -87 12 -120 6 -33 11 -109 10 -170 0 -109 13 -237 31 -285 5 -14
10 -41 12 -61 2 -20 7 -42 12 -49 9 -14 17 -81 15 -120 -6 -118 -1 -193 16
-211 9 -10 23 -19 29 -19 15 0 26 25 20 43 -2 6 -6 37 -9 67 -2 30 -9 76 -15
101 -15 67 -24 399 -11 399 6 0 21 9 33 20 17 16 19 23 8 29 -7 5 -12 22 -10
42 2 19 1 39 -3 44 -3 6 -3 21 -1 35 9 50 6 86 -11 164 -10 43 -15 89 -12 101
3 12 1 37 -5 56 -5 19 -12 117 -14 219 -3 102 -7 208 -10 235 -6 56 -6 188 1
280 5 58 6 135 4 202 0 18 -7 54 -15 80 -16 53 -20 103 -7 103 5 0 7 23 4 51
-4 56 5 122 16 115 4 -2 7 70 6 161 -1 121 -4 167 -14 173 -8 5 -9 9 -1 11 12
4 21 73 22 156 0 35 6 56 16 65 13 10 17 10 20 0 3 -6 9 -10 14 -7 5 3 17 1
28 -5 13 -6 22 -7 26 0 4 6 15 5 30 -2 20 -9 28 -8 42 5 24 21 53 27 158 32
106 5 106 5 169 2 36 -1 52 2 59 14 7 12 18 14 41 10 44 -9 193 -5 249 7 45 9
49 8 58 -12 5 -11 13 -28 18 -36 32 -56 32 -93 0 -175 -16 -41 -23 -70 -20
-88 1 -10 -2 -24 -7 -30 -11 -13 -31 -110 -36 -172 -2 -22 -8 -58 -14 -80 -7
-22 -12 -66 -12 -98 0 -32 -4 -56 -9 -53 -14 9 -29 -37 -24 -72 4 -25 2 -32
-11 -32 -12 0 -16 -10 -17 -37 0 -21 -2 -47 -5 -58 -2 -11 -7 -54 -10 -95 -4
-41 -11 -81 -17 -88 -5 -6 -7 -26 -3 -43 3 -18 2 -37 -3 -43 -5 -6 -14 -38
-21 -71 -7 -32 -18 -73 -25 -90 -27 -64 -35 -104 -45 -219 -6 -65 -12 -122
-15 -126 -2 -4 -7 -43 -10 -86 -3 -43 -10 -80 -15 -82 -6 -2 -10 -17 -10 -33
0 -16 -13 -68 -30 -115 -21 -62 -29 -102 -27 -140 1 -30 -2 -58 -8 -62 -5 -4
-11 -32 -12 -62 -3 -98 -11 -170 -21 -183 -5 -7 -12 -30 -15 -52 -2 -22 -14
-73 -26 -112 -11 -40 -21 -86 -21 -102 0 -16 -5 -31 -11 -33 -6 -2 -17 -33
-25 -68 -8 -36 -19 -87 -25 -115 -6 -27 -15 -70 -19 -94 -4 -24 -15 -50 -25
-57 -14 -10 -16 -22 -12 -50 4 -21 2 -43 -3 -49 -5 -6 -13 -38 -19 -70 -10
-65 -34 -130 -52 -140 -20 -13 -56 36 -73 98 -9 34 -33 83 -52 110 -28 38 -40
47 -64 47 -17 0 -33 0 -37 1 -5 0 -9 -8 -11 -18 -2 -10 -6 -25 -9 -33 -22 -55
-7 -133 36 -183 15 -17 31 -41 34 -52 24 -80 49 -131 77 -160 61 -63 129 -71
153 -17 7 15 20 35 30 44 9 10 17 25 17 33 0 8 11 30 24 49 15 22 26 57 30 97
4 35 12 71 17 81 5 9 12 40 14 69 3 28 10 59 15 69 5 10 12 37 15 61 3 24 9
55 14 69 5 14 12 41 16 61 3 21 12 42 20 49 11 9 15 33 15 81 0 37 5 71 10 74
6 3 10 27 10 53 0 26 6 57 14 68 8 11 17 38 19 60 6 46 17 75 26 70 3 -2 6 17
6 42 -1 26 5 58 12 72 7 14 13 39 13 57 0 17 5 35 10 38 6 3 10 25 10 49 0 23
5 47 11 53 6 6 12 37 14 70 1 32 4 58 5 58 2 0 4 25 5 55 2 61 17 105 37 113
8 4 9 8 3 14 -10 8 -15 173 -5 173 3 0 7 8 8 18 1 9 3 28 5 42 1 14 8 41 14
60 6 19 11 42 11 50 0 8 5 44 12 80 6 36 15 92 19 125 5 33 14 78 21 99 6 22
9 52 6 67 -3 16 -2 31 3 33 5 3 11 25 14 48 4 24 13 68 22 98 9 30 18 80 21
110 3 30 13 70 21 88 9 18 13 45 10 60 -3 16 0 35 9 46 8 11 14 39 14 62 0 23
4 64 10 91 27 138 34 179 32 191 -2 6 1 12 6 12 11 0 21 40 29 113 3 26 9 47
13 47 4 0 8 30 9 67 1 53 5 71 21 88 11 11 29 32 40 47 18 24 26 26 96 27 42
0 82 4 88 9 6 5 25 7 41 6 64 -6 113 -6 195 -1 79 5 86 4 102 -16 l18 -22 6
23 c4 12 11 22 18 23 6 0 31 3 56 6 50 6 50 6 140 5 120 -1 200 11 200 30 0 5
15 1 34 -10 22 -13 49 -19 77 -18 24 1 49 -2 56 -7 7 -5 27 -4 50 4 21 6 45
14 53 17 31 10 139 11 145 2 9 -14 45 -12 75 3 17 9 36 11 55 5 16 -4 44 -4
62 1 17 5 34 6 37 3 10 -9 397 -8 403 1 3 5 9 3 13 -4 7 -10 14 -10 39 1 25
10 34 10 46 0 9 -8 25 -10 42 -5 76 19 251 22 304 5 32 -11 45 -11 60 -2 11 7
45 12 77 11 31 -1 62 -1 67 1 23 6 45 -1 45 -14 0 -9 12 -16 32 -18 17 -2 33
-9 36 -16 2 -7 0 -11 -5 -10 -5 2 -23 -11 -41 -28 -17 -17 -60 -45 -95 -62
-35 -17 -70 -38 -77 -47 -7 -8 -19 -15 -26 -15 -8 0 -14 -5 -14 -10 0 -6 -20
-20 -44 -32 -28 -13 -42 -26 -39 -35 4 -9 -5 -13 -31 -13 -23 0 -39 -5 -42
-15 -4 -8 -22 -22 -41 -32 -42 -19 -95 -71 -87 -84 3 -5 2 -8 -3 -7 -8 3 -59
-34 -121 -89 -21 -18 -40 -33 -44 -33 -5 0 -8 -7 -8 -15 0 -8 -3 -14 -7 -13
-13 3 -63 -24 -63 -34 0 -4 -5 -8 -11 -8 -11 0 -284 -275 -354 -356 -22 -26
-57 -64 -78 -86 -21 -21 -35 -38 -31 -38 4 0 -6 -11 -22 -25 -16 -14 -32 -25
-35 -25 -3 0 -15 -17 -26 -38 -12 -20 -33 -48 -47 -61 -14 -14 -26 -30 -26
-36 0 -6 -16 -29 -36 -51 -19 -21 -40 -49 -44 -61 -6 -13 -18 -23 -30 -23 -14
0 -19 -6 -18 -23 2 -29 -46 -113 -93 -159 -20 -20 -35 -38 -33 -41 2 -2 -10
-16 -26 -32 -17 -16 -30 -34 -30 -41 0 -7 -11 -25 -24 -41 -32 -38 -86 -139
-79 -147 4 -3 -2 -15 -13 -26 -29 -29 -44 -48 -44 -56 0 -4 -11 -30 -24 -58
-14 -28 -27 -59 -30 -69 -3 -10 -10 -15 -16 -12 -5 3 -10 0 -10 -8 0 -8 -6
-20 -14 -27 -8 -6 -12 -18 -9 -26 3 -8 -1 -22 -10 -32 -8 -9 -18 -35 -22 -57
-3 -22 -12 -47 -19 -55 -31 -36 -48 -168 -48 -355 0 -118 3 -135 27 -189 14
-32 40 -79 57 -104 41 -60 167 -192 183 -192 7 0 18 -6 24 -14 7 -8 43 -24 81
-35 38 -12 72 -26 75 -31 3 -5 13 -6 21 -3 8 3 25 1 37 -5 61 -28 160 -41 172
-22 3 5 13 6 21 3 9 -3 20 0 24 8 6 9 35 14 97 15 48 1 95 4 103 7 8 3 26 5
40 5 24 -1 87 22 103 38 4 5 26 7 47 5 38 -2 46 4 41 32 -1 4 4 7 11 6 34 -4
58 2 58 16 0 8 9 19 20 25 15 8 20 8 20 -1 0 -19 50 -1 77 29 14 15 27 25 29
23 11 -8 44 8 41 21 -2 7 -2 10 0 6 7 -11 62 13 81 35 9 12 28 24 42 25 14 2
29 10 33 18 4 8 14 14 21 14 7 0 22 13 34 29 11 16 42 39 69 52 70 34 112 62
113 76 0 6 14 20 30 30 17 9 30 21 30 25 0 8 49 60 60 65 3 1 14 5 25 9 11 5
49 36 84 71 35 34 71 65 81 68 10 3 21 12 24 20 3 8 12 15 20 15 7 0 22 12 31
28 19 29 72 88 117 129 14 14 32 38 39 54 8 20 17 28 27 24 18 -7 52 22 52 45
0 9 15 23 33 31 17 8 31 20 30 27 -2 6 2 12 7 12 6 0 10 -4 10 -8 0 -5 14 -22
30 -39 17 -17 37 -54 46 -82 8 -27 20 -56 27 -63 7 -7 24 -31 38 -53 62 -95
147 -157 204 -150 17 2 54 -3 83 -10 45 -12 57 -12 87 1 19 8 40 13 47 12 7
-2 12 2 11 8 -1 7 22 14 61 19 43 4 70 12 81 25 9 10 42 28 73 41 31 12 69 33
84 47 14 13 30 22 35 19 5 -3 27 10 48 29 21 19 35 34 31 34 -5 0 -3 7 4 15 7
8 16 12 21 9 5 -3 9 -1 9 4 0 4 17 18 39 30 21 12 44 35 51 51 7 17 26 37 46
46 22 10 34 23 34 35 0 11 6 20 13 20 7 0 19 6 25 12 7 7 20 13 30 13 11 0 16
7 14 21 -2 13 6 25 23 34 14 7 25 17 25 21 0 5 30 39 66 76 36 38 73 77 82 88
10 11 32 31 50 43 17 13 32 28 32 33 0 18 64 109 77 109 7 0 13 7 13 17 0 18
0 18 85 107 31 32 54 64 52 70 -3 6 15 39 39 73 24 34 44 69 44 77 0 9 4 16 8
16 4 0 13 15 20 33 7 19 25 47 42 63 16 16 30 34 30 41 0 14 39 73 64 98 9 9
16 23 16 31 0 8 11 32 25 54 14 22 25 44 25 50 0 6 5 8 11 5 6 -4 9 -1 8 6 -3
21 48 123 75 148 14 13 22 30 19 41 -3 10 11 42 33 77 21 32 45 72 54 88 8 17
25 45 38 63 13 18 20 32 17 32 -3 0 3 14 15 30 23 32 47 32 31 1 -7 -12 -6
-24 4 -38 12 -17 12 -23 1 -39 -8 -10 -12 -29 -10 -41 3 -14 -1 -26 -10 -29
-8 -3 -18 -20 -22 -37 -3 -18 -9 -36 -12 -42 -3 -5 -7 -16 -8 -25 -2 -8 -8
-33 -14 -55 -6 -22 -14 -52 -17 -67 -3 -16 -9 -28 -13 -28 -4 0 -15 -21 -24
-48 -28 -76 -59 -142 -67 -142 -13 0 -49 -86 -49 -114 0 -15 -8 -34 -18 -44
-9 -9 -18 -29 -19 -42 -1 -14 -5 -41 -9 -60 -4 -19 -6 -42 -5 -50 1 -9 -8 -26
-20 -38 -12 -14 -19 -31 -16 -43 3 -10 1 -19 -4 -19 -5 0 -9 -8 -9 -17 0 -16
-23 -83 -72 -213 -12 -30 -29 -64 -38 -75 -10 -11 -16 -25 -13 -32 2 -6 0 -14
-6 -17 -6 -4 -8 -13 -5 -20 3 -8 -6 -37 -20 -67 -14 -29 -26 -58 -26 -64 0 -6
-9 -29 -20 -50 -11 -22 -28 -67 -37 -100 -8 -33 -22 -70 -29 -82 -8 -12 -14
-33 -14 -47 0 -13 -6 -36 -14 -51 -8 -15 -12 -34 -9 -42 3 -8 0 -19 -7 -23 -7
-4 -23 -40 -36 -79 -13 -39 -39 -114 -59 -168 -21 -55 -37 -115 -37 -139 0
-28 -6 -49 -19 -63 -10 -11 -19 -25 -19 -30 0 -6 -11 -20 -24 -33 -68 -67
-105 -98 -114 -98 -18 0 -72 -51 -72 -67 0 -9 -6 -13 -15 -10 -9 4 -21 -5 -32
-23 -19 -33 -69 -57 -76 -37 -2 7 -10 0 -17 -15 -7 -14 -28 -34 -46 -44 -19
-10 -34 -22 -34 -26 0 -4 -15 -14 -32 -21 -18 -8 -42 -24 -52 -36 -11 -11 -25
-21 -32 -21 -7 0 -26 -11 -42 -25 -17 -14 -34 -25 -38 -25 -14 -1 -54 -37 -54
-49 0 -6 -7 -11 -15 -11 -13 0 -58 -41 -123 -113 -41 -45 -186 -133 -211 -128
-7 1 -10 -2 -6 -8 3 -6 -1 -11 -9 -11 -8 0 -18 -9 -21 -20 -3 -11 -13 -20 -20
-20 -8 0 -30 -15 -49 -34 -19 -19 -37 -32 -40 -29 -3 4 -6 1 -6 -4 0 -6 -19
-21 -43 -32 -48 -23 -87 -56 -87 -72 0 -6 -7 -8 -16 -5 -22 8 -167 -91 -160
-110 4 -10 -3 -14 -24 -14 -17 0 -30 -4 -30 -10 0 -5 -5 -10 -12 -10 -6 0 -18
-7 -27 -15 -47 -44 -90 -75 -103 -75 -8 0 -25 -9 -38 -20 -13 -11 -29 -20 -37
-20 -7 0 -16 -6 -19 -14 -3 -8 -18 -19 -33 -26 -16 -6 -34 -21 -40 -33 -13
-24 -59 -50 -73 -41 -5 3 -14 -8 -21 -25 -6 -17 -16 -30 -22 -29 -16 3 -55
-13 -55 -22 0 -5 -15 -17 -32 -26 -35 -18 -76 -49 -132 -99 -18 -16 -49 -38
-69 -47 -20 -9 -46 -31 -58 -48 -13 -16 -30 -30 -40 -30 -9 0 -28 -9 -42 -20
-14 -11 -28 -20 -32 -20 -4 0 -38 -27 -77 -60 -38 -33 -74 -60 -79 -60 -6 0
-36 -22 -68 -50 -32 -27 -64 -50 -72 -50 -8 0 -27 -14 -42 -30 -16 -17 -37
-30 -46 -30 -10 0 -26 -9 -36 -20 -10 -11 -26 -20 -37 -20 -10 0 -23 -11 -30
-24 -6 -14 -39 -42 -74 -62 -35 -21 -64 -41 -64 -45 0 -5 -22 -23 -50 -41 -27
-18 -50 -36 -50 -40 0 -5 -6 -8 -13 -8 -8 0 -19 -10 -26 -23 -7 -13 -29 -32
-49 -43 -42 -22 -146 -120 -155 -147 -4 -10 -15 -17 -24 -15 -10 2 -19 -4 -21
-15 -2 -9 -22 -37 -45 -62 -56 -59 -77 -87 -77 -101 0 -6 -25 -37 -56 -68 -31
-31 -53 -56 -49 -56 5 0 0 -9 -10 -20 -10 -11 -15 -23 -12 -27 4 -3 -1 -12
-12 -19 -10 -7 -21 -31 -25 -54 -4 -25 -12 -40 -20 -40 -8 0 -17 -14 -21 -33
-4 -17 -13 -46 -21 -64 -8 -17 -12 -38 -8 -46 3 -8 -3 -21 -13 -28 -13 -10
-18 -24 -16 -44 1 -16 0 -37 -3 -45 -8 -22 -10 -121 -2 -126 3 -2 3 -18 -2
-34 -19 -65 18 -230 74 -335 9 -16 16 -37 16 -46 0 -9 7 -22 15 -29 8 -6 17
-21 21 -33 7 -21 30 -60 107 -177 76 -115 418 -440 464 -440 25 0 90 -37 112
-64 7 -9 19 -16 25 -16 6 0 42 -21 80 -45 69 -45 101 -56 94 -33 -3 7 -16 19
-30 28 -67 40 -148 102 -176 134 -17 20 -35 36 -39 36 -18 0 -43 12 -43 20 0
5 -22 30 -50 56 -48 45 -60 64 -41 64 5 0 39 -20 75 -44 74 -49 89 -46 24 5
-24 19 -49 41 -56 51 -7 10 -36 33 -65 52 -82 55 -270 244 -295 296 -11 25
-22 52 -24 60 -2 8 -11 21 -21 28 -9 7 -17 23 -17 34 0 12 -6 29 -13 37 -14
17 -42 102 -53 161 -4 19 -12 41 -18 49 -7 9 -11 75 -11 184 -1 180 0 183 60
287 8 14 15 35 15 48 0 12 9 31 21 43 11 11 21 29 22 40 1 12 9 25 19 30 10 5
18 16 18 23 0 7 11 18 25 24 14 7 25 20 25 31 0 10 7 24 16 32 21 18 45 65 36
74 -4 4 5 17 20 28 15 12 31 33 36 47 8 21 16 25 48 25 36 0 39 2 42 30 2 16
13 38 25 48 12 11 21 23 19 28 -1 5 6 12 15 16 34 11 111 68 129 95 10 15 37
39 61 54 23 14 61 44 83 65 23 22 48 39 56 39 8 0 34 18 58 40 24 22 51 40 60
40 9 0 16 4 16 9 0 5 16 16 35 25 19 9 39 25 45 35 5 11 22 23 37 29 25 9 41
20 93 64 100 87 127 108 140 108 8 0 42 25 75 55 33 30 67 55 75 55 9 0 23 8
32 18 39 40 55 52 70 52 8 0 33 13 54 28 22 16 45 27 52 24 7 -2 12 6 12 20 0
23 52 64 76 60 6 -1 30 18 52 42 22 24 43 42 45 39 5 -4 86 44 97 58 3 3 19
13 35 22 17 8 54 40 83 71 35 37 61 56 76 56 13 0 35 9 49 20 14 11 32 17 41
14 9 -3 16 -1 16 5 0 6 11 17 25 23 14 6 25 16 25 22 0 12 95 76 112 76 6 0
19 11 30 25 11 14 24 23 29 20 9 -6 53 23 101 68 17 15 38 27 48 27 9 0 25 9
35 20 10 11 23 20 29 20 7 0 18 9 26 20 8 11 19 20 26 20 6 0 27 16 47 35 20
19 43 35 51 35 9 0 37 21 63 47 27 26 62 55 79 64 17 10 49 35 71 58 38 37 44
39 75 31 42 -13 40 -13 34 8 -8 26 122 160 164 167 41 7 89 43 96 72 6 23 44
53 68 53 7 0 26 6 41 14 26 14 30 13 56 -13 24 -24 28 -36 25 -72 -1 -24 -7
-55 -13 -69 -6 -14 -14 -40 -18 -58 -4 -18 -13 -45 -21 -60 -8 -15 -14 -33
-14 -40 0 -7 -13 -32 -28 -55 -16 -23 -29 -53 -30 -67 0 -14 -6 -26 -12 -28
-5 -2 -8 -7 -5 -12 3 -4 0 -34 -7 -66 -6 -33 -12 -66 -12 -74 -1 -9 -5 -21
-10 -28 -4 -7 -3 -19 4 -27 9 -10 8 -19 -3 -37 -8 -13 -18 -41 -22 -63 -4 -22
-12 -49 -18 -60 -6 -11 -10 -30 -8 -42 2 -18 -1 -21 -14 -16 -14 5 -16 2 -10
-16 4 -14 -3 -41 -21 -79 -14 -31 -28 -67 -30 -80 -1 -13 -8 -30 -15 -38 -6
-8 -9 -17 -6 -20 3 -3 2 -17 -3 -30 -12 -30 -19 -65 -26 -124 -3 -25 -22 -85
-41 -135 -20 -49 -37 -101 -39 -115 -6 -47 -26 -120 -32 -120 -4 0 -7 -15 -6
-32 0 -31 -5 -50 -27 -103 -4 -11 -11 -35 -14 -53 -4 -18 -14 -39 -23 -48 -12
-12 -13 -20 -4 -34 8 -13 7 -23 -6 -41 -9 -13 -17 -30 -19 -37 -1 -8 -9 -22
-19 -33 -13 -14 -15 -22 -6 -31 8 -8 6 -15 -9 -27 -11 -9 -22 -32 -25 -51 -3
-19 -10 -39 -15 -45 -5 -5 -9 -19 -9 -32 0 -12 -9 -38 -20 -58 -11 -20 -20
-40 -20 -46 0 -6 -13 -38 -29 -72 -41 -87 -68 -169 -63 -190 2 -10 -1 -23 -7
-30 -5 -7 -17 -35 -26 -62 -10 -27 -28 -66 -41 -87 -13 -20 -24 -45 -24 -54 0
-9 -10 -37 -23 -63 -13 -25 -27 -59 -31 -74 -3 -15 -11 -25 -16 -22 -5 3 -12
-7 -15 -22 -8 -36 -12 -45 -78 -183 -30 -63 -58 -125 -61 -137 -4 -11 -13 -24
-21 -27 -8 -3 -15 -12 -15 -21 0 -18 -54 -132 -74 -154 -7 -9 -22 -34 -31 -56
-10 -22 -30 -52 -43 -67 -14 -16 -22 -28 -17 -28 4 0 -4 -11 -19 -25 -14 -13
-26 -30 -26 -38 0 -8 -18 -35 -40 -60 -22 -25 -40 -49 -40 -54 0 -4 -44 -52
-98 -105 -54 -54 -112 -112 -129 -130 -41 -43 -78 -69 -124 -88 -21 -8 -49
-25 -63 -37 -14 -13 -26 -21 -26 -18 0 3 -11 -2 -24 -10 -52 -35 -128 -47
-299 -49 -77 -1 -96 -4 -92 -14 3 -8 5 -18 5 -23 0 -5 7 -9 16 -9 8 0 12 5 9
10 -12 20 6 9 35 -20 33 -34 63 -40 54 -12 -5 16 -5 16 6 0 15 -25 30 -22 31
5 1 17 2 18 6 4 2 -9 8 -15 13 -12 5 3 19 0 30 -7 16 -10 22 -10 28 -1 5 8 38
15 78 18 86 7 126 18 206 55 120 57 153 78 166 104 7 14 21 26 30 27 9 0 39
27 66 60 26 33 66 69 87 80 30 15 39 25 39 44 0 18 8 28 25 35 14 5 30 20 35
32 22 48 103 148 121 148 5 0 7 5 4 10 -3 6 1 13 9 16 9 3 16 14 16 24 0 10 6
23 14 29 8 6 19 25 26 40 6 16 20 31 31 34 12 3 19 14 19 29 0 13 11 40 25 60
14 20 25 47 25 59 0 12 14 37 30 56 18 20 30 45 30 61 0 24 33 60 51 55 3 -1
6 3 7 10 5 61 16 94 34 108 11 9 22 28 23 42 2 14 10 41 19 58 9 18 16 40 16
49 0 16 41 101 60 125 4 6 11 25 15 44 4 18 14 42 23 52 19 22 52 119 58 169
3 19 13 47 24 62 11 15 20 37 20 49 0 12 6 30 13 38 7 9 19 36 26 61 7 25 18
56 24 70 6 14 12 40 13 59 0 19 9 40 18 46 9 7 16 20 16 31 0 10 11 34 25 54
14 20 27 56 30 80 3 25 7 54 9 65 3 11 5 25 5 32 1 6 9 14 19 17 13 4 19 16
19 35 0 27 16 71 47 131 7 14 16 50 20 80 8 74 43 180 62 195 15 10 30 70 39
148 2 15 8 34 14 41 7 9 9 30 5 55 -6 35 -2 46 20 75 14 19 26 38 26 42 0 3
13 32 29 63 16 31 31 79 33 105 3 26 10 51 16 55 10 6 12 25 11 119 0 17 7 39
15 48 9 8 16 23 17 32 2 45 10 74 39 138 45 98 47 106 49 139 2 53 23 138 37
153 13 13 18 33 15 59 -1 7 2 13 8 13 5 0 7 9 4 20 -4 14 0 20 12 20 13 0 15
3 6 13 -6 8 -7 18 -3 23 5 5 14 34 21 64 7 30 19 69 26 85 7 17 16 51 20 77 4
26 10 46 14 44 4 -3 8 11 8 30 1 20 12 51 26 72 14 20 33 54 43 75 10 20 22
37 28 37 6 0 45 32 86 70 43 40 84 70 96 70 12 0 38 15 59 34 35 33 47 48 76
104 7 12 18 21 26 18 7 -3 27 9 45 27 18 18 52 45 76 61 23 16 42 32 42 36 0
5 14 13 30 19 17 5 34 21 39 35 6 13 19 27 30 31 24 7 103 94 96 105 -8 13 24
33 45 27 15 -4 20 0 20 14 0 10 3 19 8 19 12 0 109 94 122 118 6 13 24 25 40
29 29 5 48 20 49 36 0 10 44 57 53 57 11 0 58 50 58 60 0 6 4 10 8 10 11 0 63
50 134 128 31 34 62 62 70 62 7 0 26 18 42 40 16 21 32 38 35 37 12 -4 63 39
166 138 57 55 116 111 132 125 16 14 39 39 52 57 13 17 34 34 47 37 12 3 26
15 29 26 3 11 12 20 19 20 7 0 28 14 47 32 19 17 61 56 94 87 33 31 75 67 93
80 17 13 32 30 32 37 0 8 3 14 8 14 8 0 97 82 184 167 26 26 45 50 42 55 -3 4
6 13 20 20 14 6 26 15 26 19 0 4 23 31 50 60 28 29 50 54 50 55 0 14 125 144
138 144 6 0 19 11 30 25 11 14 29 25 40 25 11 0 22 8 24 17 3 15 4 15 21 -1
13 -14 17 -29 13 -60 -2 -22 -5 -53 -5 -67 -1 -14 -10 -36 -21 -49 -11 -13
-24 -39 -30 -59 -5 -20 -16 -45 -23 -56 -13 -20 -49 -110 -48 -120 1 -3 -8
-14 -19 -25 -11 -11 -20 -27 -20 -35 0 -8 -4 -15 -8 -15 -4 0 -8 -8 -9 -17 -3
-37 -22 -98 -33 -101 -5 -2 -8 -8 -5 -13 3 -4 -6 -30 -20 -56 -14 -26 -25 -56
-25 -66 0 -9 -4 -25 -10 -35 -24 -43 -70 -153 -70 -167 0 -8 -5 -15 -11 -15
-5 0 -8 -4 -4 -9 3 -6 -3 -14 -12 -20 -10 -6 -15 -11 -11 -11 9 0 -25 -94 -41
-114 -7 -8 -10 -19 -7 -24 3 -5 -3 -21 -14 -34 -11 -14 -17 -28 -14 -31 8 -7
-27 -87 -38 -87 -4 0 -8 -10 -8 -23 0 -13 -4 -27 -8 -32 -5 -6 -17 -37 -27
-70 -10 -33 -23 -69 -28 -80 -6 -11 -14 -28 -19 -37 -4 -10 -8 -27 -8 -37 0
-11 -5 -23 -11 -26 -6 -4 -8 -13 -5 -20 3 -8 0 -15 -6 -17 -6 -2 -12 -20 -12
-40 -1 -20 -4 -34 -7 -32 -8 5 -19 -21 -19 -44 -1 -9 -9 -35 -20 -57 -11 -22
-19 -52 -20 -67 0 -15 -4 -29 -9 -32 -5 -3 -9 -26 -9 -51 -1 -25 -5 -53 -11
-62 -5 -10 -12 -45 -16 -78 -4 -33 -11 -64 -15 -70 -4 -5 -8 -38 -9 -71 -3
-68 1 -74 74 -124 53 -36 73 -37 137 -5 27 14 58 25 69 25 11 0 33 15 50 32
16 18 37 40 45 50 9 9 28 19 42 23 15 4 34 13 42 20 42 39 83 82 103 108 44
59 126 153 193 223 112 116 154 165 154 180 0 8 4 14 9 14 5 0 12 12 16 27 3
16 24 44 46 64 21 20 39 42 39 47 0 6 10 21 23 32 12 12 22 25 22 30 0 5 28
38 63 75 34 36 62 70 62 75 0 6 6 9 13 7 6 -1 11 4 9 11 -5 27 53 121 121 196
21 22 48 65 62 93 13 29 29 53 34 53 6 0 11 9 11 20 0 11 6 23 14 26 13 5 31
49 28 65 -1 4 8 15 18 24 11 10 20 24 20 32 0 12 19 52 30 63 3 3 11 17 19 32
8 15 22 37 33 47 10 11 18 27 18 35 0 8 8 21 18 28 19 15 55 81 55 103 0 8 6
16 14 19 7 3 13 12 13 20 0 7 7 17 16 20 8 3 13 10 10 15 -6 9 1 30 33 101 8
19 15 37 16 40 0 3 15 24 33 47 17 22 32 48 32 57 0 10 6 13 15 10 10 -4 15 0
15 14 0 12 5 24 10 27 6 4 8 15 5 25 -3 11 0 20 10 24 8 3 15 14 15 25 0 11 6
24 13 28 7 4 18 19 25 33 7 14 23 45 37 69 14 24 25 52 25 61 0 10 11 25 25
34 14 9 25 22 25 30 0 7 9 21 20 31 11 10 20 24 20 32 0 18 38 72 68 96 12 10
20 23 16 28 -7 11 35 48 55 49 8 0 22 7 32 16 17 15 18 15 24 -8 3 -13 3 -41
0 -63 -3 -22 -7 -49 -8 -60 -1 -11 -6 -23 -11 -26 -5 -4 -8 -18 -8 -33 0 -14
-5 -26 -10 -26 -6 0 -8 -7 -4 -15 3 -8 -5 -26 -19 -41 -13 -14 -21 -32 -18
-40 3 -8 -1 -14 -11 -14 -9 0 -19 -15 -26 -40 -6 -21 -14 -41 -19 -44 -5 -3
-11 -24 -15 -46 -3 -22 -11 -40 -16 -40 -6 0 -10 -10 -10 -23 0 -13 -6 -29
-12 -35 -10 -10 -10 -15 2 -22 14 -9 7 -14 -13 -11 -5 1 -6 -3 -2 -9 4 -6 0
-22 -9 -35 -9 -13 -16 -33 -16 -44 0 -25 -29 -90 -52 -115 -10 -11 -18 -34
-18 -52 0 -18 -4 -36 -10 -39 -5 -3 -10 -18 -10 -32 0 -13 -9 -37 -20 -53 -11
-15 -17 -30 -13 -33 3 -3 -4 -22 -15 -40 -11 -19 -23 -50 -27 -68 -4 -19 -16
-52 -26 -73 -22 -47 -23 -49 -6 -40 6 4 4 -2 -5 -12 -10 -11 -20 -36 -24 -55
-3 -19 -9 -43 -14 -54 -11 -27 -22 -75 -22 -102 0 -13 -4 -23 -9 -23 -5 0 -9
-17 -9 -39 0 -21 -6 -44 -13 -50 -8 -6 -20 -35 -27 -65 -7 -30 -16 -54 -19
-53 -3 1 -6 -2 -6 -8 0 -5 3 -9 7 -8 4 2 3 -10 -3 -25 -16 -41 -21 -64 -20
-95 1 -15 -4 -38 -11 -50 -13 -24 -17 -38 -22 -77 -12 -102 -19 -140 -25 -140
-11 0 -2 -439 9 -460 6 -11 8 -25 5 -30 -3 -5 -1 -12 5 -15 6 -4 10 -14 9 -23
-3 -38 3 -52 39 -89 53 -55 88 -67 175 -60 78 7 133 22 158 43 8 8 21 14 27
14 7 0 20 7 30 15 72 63 101 85 132 100 56 29 121 77 179 133 30 29 59 52 63
52 16 0 32 15 173 165 119 127 161 170 209 210 19 17 35 37 36 45 0 9 23 39
50 67 28 28 50 55 50 58 0 10 186 190 196 190 5 0 10 12 12 28 2 15 8 25 13
22 5 -4 12 2 16 12 8 21 47 75 86 119 15 17 40 51 56 76 15 24 42 60 59 79 17
20 29 39 25 43 -3 3 -1 6 5 6 7 0 25 27 42 60 17 34 37 63 45 67 8 3 13 8 11
12 -3 4 9 16 25 26 16 11 29 25 29 31 0 6 7 17 15 24 8 7 15 21 15 31 0 10 9
23 19 28 10 6 29 32 42 58 12 25 30 54 38 63 35 38 49 60 81 128 18 39 38 73
45 75 11 5 75 94 101 142 37 68 59 103 80 127 12 16 25 38 29 50 3 13 10 32
15 43 4 11 11 27 14 35 11 26 32 59 50 79 9 10 16 23 14 28 -2 5 11 22 27 39
45 45 95 120 95 142 0 12 7 27 15 36 8 8 15 19 15 24 0 8 11 23 50 69 5 7 10
16 10 21 0 5 9 17 21 28 23 21 49 76 49 105 0 10 8 20 19 24 13 4 17 12 14 28
-4 18 4 31 31 52 19 15 38 40 41 56 4 15 15 31 26 34 10 4 19 15 19 25 0 29
32 90 47 90 7 0 10 6 7 13 -3 8 2 20 11 27 13 11 21 7 55 -28 39 -40 56 -82
65 -167 2 -16 14 -55 28 -85 13 -30 27 -75 31 -99 4 -24 22 -67 41 -96 19 -28
36 -60 38 -71 2 -10 11 -35 19 -54 9 -19 19 -50 23 -68 3 -17 11 -32 16 -32 5
0 8 -3 7 -8 -2 -11 24 -63 49 -98 13 -17 23 -38 23 -47 0 -10 5 -17 10 -17 6
0 10 -5 10 -11 0 -6 8 -21 18 -34 9 -12 24 -33 32 -45 15 -23 78 -98 115 -136
11 -11 37 -39 57 -62 20 -23 40 -42 45 -42 4 0 19 -16 32 -35 13 -19 28 -35
32 -35 5 0 19 -11 31 -25 12 -14 26 -25 32 -25 6 0 21 -11 34 -24 19 -21 100
-67 125 -72 4 -1 10 -2 15 -3 4 -1 0 -6 -8 -12 -12 -8 -10 -9 8 -4 21 6 77
-20 110 -52 7 -7 19 -13 26 -13 7 0 23 -11 36 -25 13 -14 25 -23 28 -21 2 2
26 -7 54 -21 27 -14 59 -23 69 -20 12 3 22 0 26 -9 3 -8 10 -14 17 -13 12 2
48 -11 56 -21 9 -11 149 -52 159 -46 5 4 11 1 13 -4 2 -6 19 -13 38 -16 19 -3
53 -12 75 -20 22 -7 49 -14 61 -14 11 0 24 -3 28 -7 3 -4 14 -8 24 -10 30 -6
37 -8 47 -15 6 -3 34 -5 63 -4 28 2 52 -1 52 -5 0 -5 6 -9 13 -9 8 0 27 -6 43
-14 16 -8 49 -16 74 -18 25 -2 48 -7 51 -12 9 -12 99 -17 99 -5 0 5 22 0 49
-11 34 -13 84 -21 158 -24 59 -3 108 -6 108 -6 0 -2 79 -11 97 -11 10 0 20 -4
23 -10 9 -13 25 -11 22 3 -1 7 5 11 13 9 8 -2 51 -6 95 -8 44 -2 87 -7 95 -10
23 -8 130 -9 130 -1 0 4 13 6 29 5 16 -1 27 -5 24 -9 -2 -5 7 -8 21 -8 14 0
26 4 26 9 0 5 15 9 33 9 17 -1 66 2 107 7 41 4 111 8 155 9 44 1 101 6 128 10
33 6 52 5 62 -4 10 -9 15 -9 15 -1 0 6 5 11 11 11 5 0 7 -5 4 -10 -3 -6 1 -10
9 -10 8 0 18 5 21 11 4 6 21 10 39 9 61 -4 87 0 81 11 -5 7 28 9 104 6 61 -2
111 0 111 3 0 4 19 6 43 5 23 -1 48 3 54 8 7 5 29 6 48 3 35 -7 51 8 18 17
-10 2 5 2 34 -1 29 -2 65 0 80 6 15 6 47 13 71 16 50 6 65 13 57 27 -3 5 1 6
9 3 9 -3 29 -2 44 4 17 6 35 6 44 1 11 -6 24 -2 41 11 17 13 42 20 81 21 32 1
61 8 67 15 6 8 16 11 22 7 9 -6 62 -8 70 -3 4 3 43 11 67 14 14 1 33 6 43 10
9 5 23 6 31 3 8 -3 20 1 26 9 7 8 24 14 39 14 15 0 35 6 46 14 11 7 37 16 58
20 21 4 35 11 32 15 -2 5 12 11 33 15 93 16 109 20 147 44 22 14 53 27 69 29
17 2 41 11 55 20 15 10 29 18 33 18 3 0 10 3 14 7 4 5 20 8 36 8 16 0 49 11
74 25 25 14 54 25 64 25 11 0 20 5 20 10 0 6 10 10 22 10 12 0 30 8 40 17 10
9 29 18 40 20 12 2 29 10 38 18 9 8 22 15 29 15 6 0 21 9 33 20 12 11 27 19
32 18 19 -3 73 12 112 32 20 11 41 17 45 14 5 -3 9 0 9 6 0 7 6 10 14 7 8 -3
22 3 32 14 9 10 23 19 31 19 7 0 13 4 13 8 0 5 21 18 48 31 81 38 101 51 112
72 6 10 16 19 24 19 7 0 26 15 42 33 16 18 53 46 83 62 29 16 56 35 58 42 3 7
9 10 14 7 5 -3 9 -1 9 5 0 5 19 23 43 40 23 16 59 45 81 65 21 20 42 34 46 31
4 -2 25 13 47 34 22 21 56 46 75 55 31 15 112 87 295 265 29 28 54 51 57 51
20 0 174 180 207 243 12 22 88 127 100 137 16 15 69 124 89 185 12 39 33 93
45 120 13 28 33 84 45 125 13 41 29 86 36 100 6 14 13 52 15 85 2 33 10 68 17
77 10 12 13 32 10 63 -3 25 -1 48 4 51 5 3 7 12 4 19 -2 7 -1 29 4 49 4 20 4
39 -1 42 -5 3 -9 -4 -9 -15 0 -12 -3 -21 -7 -21 -5 0 -9 28 -10 62 -1 34 -10
77 -19 96 -11 24 -14 47 -9 77 4 28 2 46 -6 50 -8 5 -9 1 -4 -14 4 -12 2 -21
-4 -21 -14 0 -14 55 -1 80 7 14 7 25 -2 39 -9 15 -9 23 1 35 10 12 11 19 2 30
-9 11 -9 15 1 19 7 3 2 6 -11 6 -13 1 -21 4 -18 8 4 3 -13 26 -38 51 -25 24
-45 50 -45 58 0 24 -20 15 -21 -8 0 -13 -3 -17 -6 -10 -2 6 -11 12 -19 12 -12
0 -12 -4 -4 -20 8 -16 8 -18 -4 -14 -16 6 -32 -29 -21 -46 3 -5 3 -10 -2 -10
-4 0 -8 -20 -9 -45 0 -25 3 -45 7 -45 26 0 49 -116 51 -252 1 -28 21 -38 33
-18 10 17 48 12 41 -5 -5 -13 -2 -14 15 -5 15 9 24 8 35 -1 18 -15 18 -30 -1
-23 -11 5 -15 -2 -15 -26 0 -18 -8 -44 -18 -58 -17 -24 -33 -57 -36 -72 -1 -3
-5 -10 -9 -17 -4 -6 -1 -14 5 -16 8 -3 5 -6 -6 -6 -13 -1 -16 -6 -11 -18 18
-42 16 -68 -8 -93 -18 -19 -21 -29 -14 -42 8 -11 7 -28 -2 -55 -7 -21 -12 -43
-11 -48 5 -23 -1 -35 -17 -36 -11 0 -13 -3 -5 -6 20 -8 15 -25 -33 -113 -25
-46 -45 -87 -45 -91 0 -4 -16 -20 -35 -35 -20 -15 -33 -29 -31 -31 5 -6 -38
-79 -61 -103 -7 -8 -37 -51 -66 -95 -60 -93 -68 -102 -204 -241 -57 -58 -103
-109 -103 -113 0 -5 -39 -41 -87 -80 -49 -40 -108 -89 -132 -109 -25 -20 -50
-36 -57 -34 -8 1 -10 -5 -7 -17 4 -15 -1 -22 -21 -27 -14 -3 -26 -13 -26 -21
0 -9 -6 -13 -13 -10 -8 3 -20 1 -28 -5 -11 -8 -9 -8 6 -4 l20 6 -20 -16 c-24
-19 -87 -49 -98 -46 -4 1 -35 -25 -68 -58 -32 -33 -64 -60 -69 -60 -5 0 -15
-9 -22 -20 -7 -11 -21 -20 -31 -20 -10 0 -20 -6 -23 -14 -3 -8 -12 -12 -19
-10 -7 3 -18 -3 -24 -14 -6 -11 -24 -25 -41 -32 -16 -7 -30 -16 -30 -19 0 -4
-16 -13 -35 -21 -19 -8 -35 -17 -35 -20 0 -12 -49 -30 -65 -24 -8 4 -15 1 -15
-5 0 -6 -10 -16 -22 -21 -13 -6 -30 -14 -38 -20 -34 -21 -100 -47 -93 -37 3 7
-2 4 -13 -5 -25 -22 -104 -50 -121 -44 -7 3 -13 0 -13 -7 0 -16 -37 -40 -42
-26 -2 6 -16 -1 -32 -14 -16 -14 -35 -23 -42 -20 -8 3 -17 -2 -20 -11 -3 -9
-18 -16 -33 -16 -14 0 -46 -10 -71 -21 -25 -11 -56 -23 -69 -25 -14 -3 -32
-14 -41 -25 -18 -20 -36 -27 -25 -9 3 6 3 10 0 10 -10 0 -88 -44 -103 -58 -7
-6 -27 -12 -43 -12 -17 0 -39 -5 -49 -10 -11 -6 -32 -12 -47 -13 -31 -4 -48
-10 -106 -37 -22 -10 -48 -17 -59 -15 -12 3 -33 -4 -48 -15 -16 -11 -32 -20
-37 -20 -4 0 -1 5 7 11 11 8 9 9 -10 3 -30 -9 -83 -15 -127 -14 -18 0 -33 -4
-33 -9 0 -8 -18 -13 -80 -24 -9 -2 -22 -7 -30 -12 -8 -5 -30 -9 -50 -8 -19 0
-41 -4 -48 -10 -9 -7 -17 -5 -28 9 -9 10 -13 13 -9 6 4 -7 -1 -12 -11 -12 -10
0 -37 -9 -61 -21 -24 -12 -55 -19 -68 -16 -14 2 -25 1 -25 -2 0 -3 -22 -7 -48
-8 -27 -2 -93 -14 -148 -29 -54 -14 -103 -26 -109 -25 -69 9 -175 7 -200 -3
-16 -8 -55 -14 -85 -15 -30 -1 -84 -4 -120 -6 -36 -2 -127 -6 -202 -9 -76 -2
-142 -7 -148 -11 -5 -3 -10 -1 -10 5 0 8 -6 8 -21 0 -35 -19 -334 -16 -366 3
-6 4 -14 3 -18 -3 -9 -14 -71 -12 -133 4 -42 10 -54 11 -62 0 -8 -9 -20 -10
-46 -3 -19 6 -39 7 -45 4 -5 -4 -16 -1 -24 5 -8 7 -24 10 -35 7 -13 -3 -20 0
-20 8 0 9 -12 13 -32 13 -101 -3 -234 7 -246 19 -7 7 -30 14 -50 14 -72 3
-108 8 -196 29 -50 11 -96 26 -104 32 -7 7 -32 11 -54 9 -24 -1 -47 4 -57 13
-9 8 -31 16 -48 19 -41 6 -168 44 -208 62 -16 7 -41 17 -55 23 -14 5 -63 28
-110 51 -47 23 -95 41 -107 41 -11 0 -23 7 -27 15 -3 8 -12 15 -19 15 -8 0
-27 11 -43 25 -16 14 -44 32 -61 40 -18 9 -33 21 -33 27 0 5 -7 8 -15 5 -8 -4
-28 6 -44 21 -16 15 -49 43 -72 62 -59 49 -156 147 -204 204 -47 57 -125 174
-123 184 3 15 -15 42 -27 42 -16 0 -25 22 -19 47 3 11 -3 26 -15 37 -12 11
-21 23 -21 27 0 5 -11 32 -24 61 -13 29 -26 64 -28 78 -1 14 -13 36 -25 50
-13 14 -23 38 -24 55 0 16 -2 37 -4 45 -6 20 -54 194 -56 200 -1 3 0 16 1 29
1 14 -2 21 -9 17 -7 -5 -11 7 -11 34 0 23 -5 50 -11 61 -5 11 -12 39 -14 62
-2 23 -7 62 -10 87 -2 25 -7 64 -10 88 -3 24 0 42 5 42 6 0 10 14 10 31 0 44
29 151 46 170 8 9 11 18 8 22 -3 3 9 25 29 49 19 24 37 56 41 71 4 15 11 25
16 22 6 -3 10 0 10 7 0 7 11 25 25 40 16 17 22 33 18 44 -4 11 -3 15 5 10 7
-4 17 15 28 54 9 33 23 65 30 71 8 6 14 17 14 23 0 6 11 28 24 47 14 20 28 49
32 63 4 16 17 31 30 37 14 5 28 19 33 32 5 12 16 29 25 36 9 7 16 20 16 27 0
8 3 14 8 14 4 0 16 17 26 38 10 20 22 44 27 52 13 21 16 31 23 62 4 15 19 41
34 56 15 16 28 35 30 42 2 8 13 27 25 44 12 17 34 54 48 81 14 28 31 60 37 70
6 11 19 37 28 58 9 20 20 37 25 37 5 0 9 6 9 14 0 7 12 25 26 40 15 14 24 26
21 26 -4 0 5 21 18 46 14 26 25 53 25 60 0 8 3 14 8 14 4 0 16 19 26 43 10 23
21 44 25 47 11 9 71 89 71 95 0 3 9 16 20 28 12 12 23 33 27 47 3 14 19 51 34
83 16 32 28 61 27 65 -3 13 14 63 20 58 5 -6 92 130 92 143 0 5 9 16 20 26 11
10 20 24 20 32 0 7 6 13 13 13 6 0 23 27 35 60 13 33 27 60 31 60 4 0 8 6 8
13 0 6 17 36 37 66 20 29 36 60 36 68 0 8 4 12 9 9 4 -3 6 5 4 19 -4 18 5 33
41 66 25 24 46 50 46 58 0 9 9 27 20 41 11 14 20 33 20 42 0 9 6 21 13 25 16
11 37 49 37 68 0 8 9 23 20 32 11 10 20 30 20 45 0 17 5 28 14 28 13 0 31 27
28 43 -2 9 26 63 56 104 12 17 22 36 22 42 0 6 9 16 20 23 11 7 20 21 20 30 0
10 5 18 10 18 6 0 10 8 10 18 0 13 2 14 9 3 5 -7 10 -9 12 -3 2 5 28 22 57 36
40 20 57 24 67 16 13 -11 45 -4 45 11 0 13 28 11 32 -2 4 -12 33 -14 111 -7
27 2 50 1 52 -3 3 -3 26 -3 52 1 60 10 294 7 310 -3 6 -4 67 -7 135 -7 198 1
268 -2 268 -10 0 -5 16 -4 36 2 20 5 42 7 50 4 7 -3 15 -2 18 2 6 11 277 3
291 -8 6 -5 26 -6 45 -2 19 4 67 6 105 5 254 -9 302 -9 323 -2 12 5 22 5 22 1
0 -9 41 -10 55 0 6 3 36 5 68 5 31 -1 57 2 57 6 0 5 5 5 10 2 16 -10 40 14 33
32 -5 12 -7 12 -14 1 -6 -9 -9 -6 -10 12 -1 23 -2 23 -9 -5 l-8 -30 -1 33 c-1
36 -23 51 -46 32 -11 -9 -22 -9 -46 -1 -17 6 -35 8 -39 6 -5 -3 -11 -1 -15 5
-3 5 -16 10 -29 10 -12 0 -27 5 -33 11 -6 6 -37 11 -69 12 -33 2 -63 5 -69 9
-12 7 -59 3 -74 -7 -6 -3 -20 -1 -31 5 -16 9 -20 8 -20 -5 0 -21 -9 -19 -33 8
-11 12 -21 17 -24 12 -2 -7 -25 -9 -56 -7 -148 11 -555 18 -563 9 -4 -3 -13 0
-21 8 -8 9 -35 16 -61 16 -26 1 -57 3 -69 4 -13 1 -23 -3 -23 -9 0 -6 -5 -4
-10 4 -8 12 -11 13 -19 1 -5 -8 -11 -9 -15 -3 -3 6 -72 10 -168 10 -90 0 -213
1 -275 2 -61 1 -116 -1 -122 -5 -6 -3 -11 2 -11 12 0 10 -16 33 -35 51 -32 28
-35 36 -14 34 3 -1 6 13 7 30 0 17 7 35 14 39 7 5 9 9 3 9 -5 0 -3 6 5 13 8 7
20 23 26 37 44 99 69 142 80 138 5 -2 10 10 12 26 2 16 15 47 30 70 14 23 36
63 49 89 13 26 30 50 38 53 8 4 15 12 15 18 0 17 62 71 76 68 14 -3 64 54 64
73 0 8 9 19 19 25 17 9 18 15 10 39 -8 22 -7 36 2 53 7 13 13 28 14 33 0 6 9
26 20 45 10 19 20 40 21 46 1 7 9 25 18 40 8 16 22 44 31 62 8 17 19 32 24 32
5 0 12 11 15 24 3 14 18 38 32 55 14 17 22 31 18 31 -4 0 4 11 18 23 14 13 32
41 39 63 7 21 18 46 25 54 6 8 14 23 17 33 4 9 10 17 15 17 5 0 15 14 22 30 7
17 17 30 22 30 5 0 6 5 3 10 -3 6 -1 10 4 10 6 0 10 3 9 8 -2 4 12 28 30 54
17 26 32 55 32 65 0 10 9 24 20 31 11 7 20 21 20 32 0 12 6 23 14 26 7 3 28
34 46 70 18 35 37 64 41 64 5 0 9 12 9 27 0 27 45 103 61 103 5 0 9 9 9 21 0
11 16 39 35 61 19 23 39 56 45 74 7 19 15 34 20 34 9 0 25 39 22 52 -1 5 7 17
19 29 11 11 29 38 38 60 10 21 21 36 26 31 5 -4 5 -1 0 6 -4 9 4 25 23 45 16
18 28 40 27 50 -2 10 5 23 16 30 10 6 19 17 19 24 0 19 44 82 62 88 17 6 70
101 81 148 4 15 12 27 17 27 6 0 10 11 10 24 0 13 7 29 16 37 8 7 27 34 40 61
13 26 29 48 34 48 6 0 10 7 10 15 0 9 7 18 15 21 9 4 27 31 42 60 14 30 29 54
33 54 4 0 13 15 20 33 7 17 24 44 37 58 13 14 26 43 30 65 3 21 20 57 37 79
48 61 67 94 65 113 -2 18 6 44 22 74 5 10 9 24 9 32 0 8 7 16 15 20 8 3 15 17
15 31 0 14 5 25 10 25 6 0 10 8 10 17 0 9 9 26 19 37 16 17 21 40 24 113 3 51
2 91 -1 89 -4 -2 -8 11 -9 29 -2 46 -26 87 -69 120 -34 26 -45 29 -128 30 -50
1 -103 -1 -117 -5 -15 -5 -32 -4 -40 0 -17 11 -66 -14 -73 -38 -8 -25 -61 -72
-81 -72 -8 0 -15 -5 -15 -11 0 -6 -11 -25 -24 -42 -13 -18 -26 -45 -28 -62 -1
-16 -9 -36 -15 -43 -27 -28 -13 -52 29 -53 76 -1 157 21 193 54 59 54 139 77
167 49 21 -21 16 -132 -8 -183 -12 -24 -38 -81 -60 -126 -21 -46 -42 -83 -46
-83 -4 0 -8 -9 -8 -20 0 -11 -4 -20 -9 -20 -8 0 -21 -29 -25 -55 0 -5 -9 -21
-19 -35 -61 -87 -127 -191 -127 -200 0 -5 -5 -10 -10 -10 -6 0 -24 -29 -41
-65 -16 -36 -33 -65 -38 -65 -4 0 -13 -16 -21 -35 -8 -19 -17 -35 -20 -35 -4
0 -28 -44 -55 -97 -27 -54 -54 -101 -59 -105 -6 -4 -7 -8 -3 -8 4 0 -4 -12
-18 -27 -14 -15 -25 -33 -25 -40 0 -7 -4 -13 -10 -13 -5 0 -10 -6 -10 -14 0
-8 -12 -28 -26 -45 -14 -17 -23 -31 -19 -31 6 0 -31 -57 -45 -70 -6 -6 -28
-43 -52 -89 -9 -18 -23 -41 -31 -50 -7 -9 -22 -36 -32 -61 -11 -25 -30 -55
-43 -68 -16 -15 -22 -30 -19 -43 4 -13 -4 -31 -22 -52 -15 -18 -33 -47 -40
-64 -8 -18 -17 -33 -22 -33 -5 0 -9 -5 -9 -12 0 -6 -6 -19 -13 -27 -8 -9 -24
-41 -37 -71 -12 -30 -31 -60 -40 -67 -10 -7 -27 -32 -38 -55 -11 -24 -32 -55
-47 -70 -18 -18 -25 -33 -21 -45 4 -10 -1 -24 -14 -37 -11 -12 -32 -39 -46
-60 -20 -31 -23 -41 -12 -47 9 -6 9 -9 1 -9 -6 0 -22 -17 -34 -37 -13 -21 -27
-42 -31 -48 -49 -62 -67 -89 -63 -96 3 -4 -6 -20 -20 -35 -14 -15 -25 -33 -25
-41 0 -7 -7 -16 -15 -19 -8 -3 -26 -29 -40 -57 -42 -84 -58 -112 -67 -115 -4
-2 -8 -13 -8 -23 0 -11 -4 -18 -9 -14 -6 3 -13 -10 -17 -30 -3 -20 -15 -40
-26 -46 -12 -6 -18 -19 -16 -33 1 -12 -7 -32 -19 -45 -11 -12 -28 -42 -38 -67
-9 -24 -22 -44 -28 -44 -14 0 -57 -63 -57 -84 0 -7 -9 -25 -20 -39 -11 -14
-20 -30 -20 -36 0 -16 -59 -98 -75 -105 -8 -3 -15 -15 -15 -26 0 -11 -4 -20
-8 -20 -4 0 -8 -10 -9 -22 -1 -13 -13 -32 -26 -43 -13 -12 -22 -26 -20 -32 2
-6 -3 -17 -11 -26 -8 -8 -17 -21 -18 -28 -2 -8 -27 -49 -55 -92 -29 -43 -53
-81 -53 -86 0 -17 -87 -89 -115 -95 -114 -24 -135 -25 -136 -7 0 10 -4 6 -10
-8 -7 -17 -12 -21 -22 -13 -8 7 -67 10 -158 8 -155 -3 -162 -2 -219 47 -28 24
-31 31 -22 50 6 12 14 36 17 53 3 18 15 40 26 50 10 9 19 25 19 34 0 9 11 29
25 44 14 15 25 38 25 52 0 15 6 24 16 24 10 0 14 6 11 15 -4 8 -2 17 2 19 11
7 65 117 66 133 0 7 9 22 19 34 10 13 26 44 35 70 10 26 23 54 30 63 8 9 10
16 5 17 -5 0 1 4 14 9 12 5 24 15 26 22 2 7 10 34 17 61 7 26 19 47 26 47 7 0
13 5 13 11 0 5 -4 7 -10 4 -18 -11 -10 6 13 28 27 26 67 89 67 106 0 7 9 21
20 33 10 12 17 25 14 30 -3 4 2 8 11 8 11 0 15 5 11 16 -6 16 46 138 64 149 6
4 8 10 5 15 -3 5 6 20 20 34 14 14 25 30 25 35 0 6 18 29 40 53 22 24 40 53
40 65 0 13 9 28 20 35 11 7 20 21 20 31 0 10 4 16 8 13 5 -3 23 25 40 62 37
79 47 94 90 138 25 26 29 34 16 34 -10 0 -14 3 -10 7 4 5 13 8 19 8 7 0 17 14
22 32 6 17 18 40 26 50 9 10 19 26 22 36 4 9 11 17 17 17 5 0 10 6 10 13 0 7
14 27 30 45 17 18 30 40 30 48 0 8 5 12 10 9 6 -3 10 2 10 12 0 11 11 34 25
53 14 19 23 40 21 47 -3 8 2 13 14 13 12 0 25 12 35 33 24 50 40 76 64 101 11
12 21 27 21 32 0 5 9 16 20 24 11 8 20 20 20 26 0 7 7 15 16 18 9 4 14 9 11
12 -3 3 4 15 14 27 11 12 26 29 34 37 7 8 19 27 26 43 7 15 16 27 21 27 4 0 8
5 8 10 0 6 11 23 25 38 14 15 25 31 25 36 0 5 8 15 18 22 11 9 13 13 4 14 -21
0 -3 20 18 20 12 0 22 9 26 25 3 13 11 23 18 22 6 -1 10 4 8 11 -1 6 3 12 9
12 7 0 21 10 31 23 49 55 78 92 76 97 -4 12 24 50 37 50 8 0 22 14 32 30 9 17
22 30 27 30 5 0 7 3 4 6 -3 3 5 17 18 31 13 14 24 32 24 39 0 8 4 14 8 14 4 0
16 14 26 30 9 17 21 28 26 25 5 -3 12 7 16 22 8 32 25 51 72 78 17 11 32 22
32 26 0 7 47 71 74 102 9 9 16 19 17 22 5 28 13 44 19 40 11 -7 19 18 26 80 4
31 2 55 -4 59 -5 3 -34 -17 -63 -44 -29 -28 -59 -50 -66 -50 -7 0 -12 -10 -10
-22 1 -17 -4 -24 -20 -26 -13 -2 -23 -8 -23 -13 0 -5 -6 -9 -14 -9 -8 0 -21
-9 -29 -20 -8 -11 -17 -17 -20 -14 -3 4 -29 -16 -57 -42 -29 -27 -59 -49 -68
-49 -10 0 -18 -10 -20 -25 -4 -24 -86 -110 -106 -110 -5 0 -7 -3 -4 -6 4 -3
-16 -29 -43 -57 -27 -28 -49 -55 -49 -60 0 -5 -6 -15 -12 -22 -26 -28 -34 -41
-54 -75 -10 -19 -23 -40 -29 -46 -5 -6 -19 -24 -30 -39 -11 -16 -35 -45 -53
-64 -50 -56 -132 -159 -132 -168 0 -4 -18 -26 -40 -48 -21 -22 -39 -48 -40
-58 0 -10 -4 -15 -10 -12 -5 3 -10 0 -10 -8 0 -8 -7 -17 -14 -20 -8 -3 -23
-21 -32 -39 -9 -18 -20 -35 -23 -38 -4 -3 -17 -21 -29 -41 -12 -19 -30 -44
-42 -54 -11 -10 -20 -24 -20 -31 0 -14 -24 -46 -69 -93 -13 -13 -34 -46 -48
-73 -13 -26 -27 -48 -31 -48 -8 0 -32 -49 -32 -66 0 -6 -7 -17 -15 -24 -8 -7
-12 -16 -9 -21 3 -5 0 -9 -5 -9 -6 0 -11 -7 -11 -15 0 -8 -9 -20 -20 -27 -11
-7 -20 -21 -20 -31 0 -10 -11 -29 -25 -43 -14 -14 -25 -29 -25 -35 0 -5 -4
-15 -10 -22 -50 -62 -63 -80 -50 -72 12 7 12 5 -1 -11 -9 -10 -19 -27 -22 -36
-4 -10 -15 -18 -26 -18 -11 0 -23 -4 -26 -10 -3 -5 -2 -10 4 -10 6 0 5 -11 -2
-29 -6 -17 -14 -28 -18 -25 -4 2 -6 -2 -6 -9 2 -19 -40 -99 -73 -137 -17 -19
-36 -53 -42 -74 -7 -22 -22 -50 -34 -64 -46 -51 -54 -62 -54 -72 0 -6 -9 -27
-20 -47 -11 -21 -20 -47 -20 -58 0 -12 -11 -36 -25 -55 -14 -19 -25 -42 -25
-51 0 -10 -12 -27 -26 -38 -14 -11 -23 -25 -19 -31 3 -5 1 -10 -4 -10 -6 0
-11 -7 -11 -16 0 -9 -6 -22 -13 -28 -7 -6 -24 -36 -37 -66 -13 -30 -36 -73
-51 -95 -62 -94 -89 -139 -89 -149 0 -6 -11 -28 -25 -49 -14 -20 -23 -42 -20
-48 4 -5 -5 -28 -20 -51 -15 -22 -29 -55 -32 -73 -3 -18 -15 -43 -27 -56 -12
-13 -34 -49 -49 -79 -46 -93 -79 -133 -127 -152 -23 -10 -141 -13 -185 -4 -11
2 -24 -2 -28 -8 -6 -8 -10 -8 -13 0 -2 6 -21 9 -42 7 -67 -7 -106 -11 -207
-21 -98 -10 -239 -19 -444 -28 -60 -3 -111 -10 -119 -17 -8 -6 -27 -10 -43 -9
-16 2 -29 0 -29 -5 0 -5 -29 -8 -65 -8 -36 0 -65 -4 -65 -8 0 -4 -15 -8 -32
-8 -176 0 -302 -12 -371 -35 -12 -4 -29 -9 -37 -10 -8 -1 -33 -7 -56 -13 -23
-6 -55 -12 -73 -13 -17 -1 -31 -6 -31 -11 0 -4 -8 -7 -17 -5 -10 1 -38 -5 -63
-14 -25 -10 -54 -19 -65 -21 -11 -2 -31 -9 -45 -17 -13 -7 -41 -12 -62 -12
-21 1 -38 -2 -38 -6 0 -4 -13 -9 -29 -10 -31 -2 -112 -44 -132 -68 -19 -24
-12 -84 16 -126 14 -21 29 -37 33 -36 4 0 16 -2 27 -6 65 -25 94 -32 127 -30
35 1 74 25 61 38 -3 3 0 12 6 20 7 8 10 19 7 24 -9 15 54 64 102 78 25 8 64
14 88 14 23 0 55 5 71 11 30 13 44 15 113 22 25 2 65 12 90 22 33 13 80 18
181 19 75 2 140 5 145 8 5 3 38 9 74 12 35 4 69 11 76 16 6 6 14 7 17 4 3 -3
11 -2 19 2 7 4 37 9 68 11 51 2 135 10 135 13 0 1 71 3 158 5 88 2 164 8 170
13 11 8 81 13 212 15 73 1 128 -5 143 -16 8 -6 12 -6 12 2 0 6 5 11 11 11 5 0
7 -5 3 -11 -3 -6 0 -15 7 -20 19 -11 14 -116 -6 -139 -8 -9 -15 -22 -15 -29 0
-6 -16 -41 -35 -77 -19 -35 -35 -73 -35 -84 0 -10 -5 -22 -11 -25 -6 -4 -8
-13 -5 -20 3 -8 2 -15 -2 -17 -13 -5 -52 -65 -52 -80 0 -23 -76 -207 -93 -226
-10 -10 -17 -26 -17 -35 0 -8 -6 -22 -14 -30 -8 -7 -24 -50 -36 -95 -12 -45
-26 -80 -30 -77 -4 3 -16 -26 -26 -63 -9 -37 -23 -79 -31 -94 -7 -16 -11 -28
-8 -28 3 0 -4 -18 -15 -40 -11 -21 -21 -47 -23 -57 -2 -10 -8 -27 -13 -38 -6
-11 -18 -48 -28 -81 -9 -34 -27 -81 -40 -105 -12 -24 -25 -55 -28 -69 -3 -14
-16 -61 -28 -105 -12 -44 -23 -86 -23 -92 0 -7 -4 -13 -8 -13 -6 0 -17 -25
-24 -60 -6 -24 -25 -93 -36 -125 -6 -16 -13 -43 -16 -60 -3 -16 -9 -35 -14
-41 -5 -7 -9 -16 -8 -20 1 -5 -3 -22 -10 -38 -11 -27 -31 -102 -36 -136 -7
-50 -19 -96 -25 -105 -5 -5 -9 -21 -9 -35 -2 -61 -28 -196 -44 -225 -12 -23
-15 -61 -17 -270 -1 -112 -6 -156 -16 -173 -8 -12 -12 -27 -9 -33 4 -5 4 -27
0 -49 -5 -28 -11 -37 -21 -33 -10 4 -14 -2 -14 -21 0 -14 -9 -41 -20 -61 -11
-20 -20 -40 -20 -46 0 -6 -7 -17 -15 -26 -9 -8 -19 -29 -22 -45 -3 -16 -14
-33 -25 -39 -12 -6 -17 -17 -14 -26 6 -15 -22 -73 -35 -73 -4 0 -14 -12 -22
-27 -35 -69 -71 -128 -79 -132 -5 -2 -26 -38 -47 -80 -20 -42 -42 -85 -48 -96
-7 -11 -14 -27 -17 -35 -4 -8 -15 -28 -25 -45 -11 -16 -20 -38 -20 -47 -1 -10
-14 -30 -30 -44 -17 -15 -33 -40 -37 -57 -3 -17 -21 -51 -38 -76 -30 -42 -136
-228 -136 -238 0 -2 -5 -9 -10 -16 -15 -17 -53 -77 -69 -110 -8 -15 -21 -27
-28 -27 -8 0 -12 -4 -8 -9 6 -10 -45 -101 -77 -137 -10 -11 -15 -24 -11 -27 3
-4 -3 -17 -14 -30 -23 -25 -37 -56 -34 -75 1 -7 -5 -15 -14 -18 -8 -3 -15 -12
-15 -19 0 -7 -18 -33 -41 -59 -22 -25 -37 -46 -32 -46 4 0 3 -4 -2 -8 -6 -4
-21 -30 -35 -58 -14 -30 -29 -50 -36 -47 -7 2 -11 -2 -11 -9 3 -19 -84 -148
-99 -148 -6 0 -15 -17 -19 -37 -4 -20 -14 -44 -24 -53 -29 -25 -61 -77 -53
-84 4 -4 2 -6 -4 -4 -6 2 -31 -22 -55 -52 -24 -30 -52 -64 -62 -75 -17 -18
-29 -37 -75 -121 -7 -13 -20 -24 -28 -24 -7 0 -14 -9 -14 -20 0 -11 -4 -20
-10 -20 -5 0 -10 -7 -10 -16 0 -8 -13 -27 -28 -42 -16 -15 -46 -49 -68 -77
-41 -53 -55 -66 -121 -123 -24 -19 -43 -40 -43 -46 0 -6 -12 -20 -27 -31 -15
-11 -43 -37 -63 -58 -19 -21 -83 -86 -141 -145 -58 -59 -108 -112 -110 -117
-2 -6 -17 -21 -33 -33 -16 -12 -35 -33 -41 -45 -6 -13 -20 -22 -32 -21 -13 0
-19 -5 -16 -12 2 -7 -9 -20 -26 -30 -31 -18 -40 -34 -21 -34 6 0 10 -4 10 -9
0 -4 -10 -6 -23 -4 -24 5 -77 -30 -77 -50 0 -7 -18 -20 -40 -31 -21 -10 -41
-25 -44 -32 -3 -8 -10 -14 -16 -14 -6 0 -36 -16 -66 -35 -30 -19 -59 -35 -64
-35 -15 0 -90 -49 -90 -58 0 -5 -21 -9 -47 -11 -25 -1 -49 -2 -52 -3 -22 -2
-51 17 -47 29 3 8 2 12 -3 9 -8 -5 -12 29 -28 200 -3 41 -1 70 8 85 7 13 14
60 14 104 1 44 8 100 15 125 7 25 12 53 11 63 -1 9 5 43 15 75 9 31 18 64 19
72 0 8 7 25 13 37 7 12 12 30 12 40 0 11 9 38 20 61 11 22 20 50 20 62 0 11 7
32 16 45 9 14 14 25 10 25 -3 0 -1 12 5 28 6 15 14 47 19 72 15 83 21 104 32
118 6 7 11 27 10 45 0 17 4 37 10 44 6 7 8 19 5 27 -3 8 1 17 10 20 9 4 13 14
10 25 -2 11 3 32 12 48 9 15 18 50 19 77 1 27 8 56 16 65 7 9 16 28 20 44 3
15 11 27 16 27 6 0 10 15 10 34 0 19 5 38 10 41 5 3 10 15 10 26 0 10 5 19 10
19 6 0 10 7 10 16 0 9 6 30 14 47 8 18 17 50 19 72 11 91 20 136 28 141 5 3 9
16 9 30 0 16 6 24 18 24 13 0 14 2 3 9 -7 5 -10 14 -7 20 4 6 9 21 11 33 3 13
9 24 15 26 5 2 10 11 10 20 0 17 48 120 67 144 18 23 32 98 19 98 -8 0 -8 2 0
8 15 9 38 82 35 107 -1 12 5 34 13 50 8 16 13 32 10 37 -3 4 -1 8 5 8 5 0 13
15 16 33 4 17 16 49 26 69 10 20 21 51 23 70 3 18 7 44 10 58 20 108 12 174
-25 211 -23 23 -64 27 -96 11 -29 -16 -123 -106 -123 -119 0 -5 -11 -22 -25
-37 -14 -15 -32 -40 -40 -57 -9 -16 -20 -29 -25 -29 -6 0 -10 -6 -10 -14 0 -7
-7 -19 -15 -26 -8 -7 -15 -22 -15 -34 0 -17 -2 -18 -10 -6 -9 14 -12 7 -9 -16
0 -4 -3 -10 -8 -13 -4 -3 -17 -22 -27 -41 -33 -61 -63 -114 -84 -151 -11 -20
-26 -47 -33 -60 -6 -13 -16 -31 -21 -39 -4 -8 -12 -25 -18 -37 -5 -13 -14 -23
-19 -23 -5 0 -13 -9 -16 -20 -3 -11 -12 -26 -19 -33 -8 -7 -23 -31 -35 -53
-12 -21 -35 -59 -51 -84 -15 -25 -29 -53 -29 -62 -1 -9 -12 -30 -26 -46 -14
-17 -25 -34 -25 -39 0 -5 -8 -20 -17 -33 -10 -14 -19 -34 -21 -45 -2 -11 -5
-26 -6 -33 -1 -8 -8 -17 -14 -21 -7 -4 -11 -23 -9 -44 1 -20 -2 -37 -8 -38
-13 -2 -28 -26 -45 -69 -7 -19 -26 -54 -42 -78 -15 -24 -28 -47 -28 -51 0 -5
-7 -14 -15 -21 -8 -7 -15 -20 -15 -29 0 -9 -9 -23 -20 -31 -11 -8 -20 -22 -20
-32 0 -10 -4 -18 -8 -18 -4 0 -8 -9 -9 -19 -2 -25 -57 -137 -78 -157 -8 -9
-15 -20 -15 -27 0 -6 7 -2 15 9 8 10 15 14 15 9 0 -6 -17 -28 -37 -51 -34 -36
-76 -98 -140 -203 -11 -20 -19 -40 -15 -45 3 -5 0 -6 -6 -2 -6 3 -16 -7 -24
-24 -7 -16 -16 -30 -20 -30 -5 0 -8 -6 -8 -14 0 -20 -40 -86 -51 -86 -5 0 -9
-9 -9 -21 0 -12 -4 -18 -11 -13 -7 4 -10 1 -7 -6 4 -14 -3 -25 -57 -84 -20
-21 -32 -43 -28 -51 3 -8 0 -15 -6 -15 -6 0 -11 7 -11 16 0 8 -4 13 -10 9 -5
-3 -7 -11 -4 -18 5 -13 -30 -57 -45 -57 -5 0 -19 -20 -31 -44 -11 -24 -42 -64
-68 -88 -26 -24 -46 -44 -44 -45 6 -7 1 -23 -9 -23 -12 0 -69 -58 -69 -70 0
-4 -7 -13 -15 -20 -8 -7 -15 -21 -15 -30 0 -10 -18 -38 -40 -62 -22 -23 -40
-49 -40 -55 0 -7 -11 -20 -24 -29 -15 -9 -22 -21 -19 -30 3 -8 -1 -14 -9 -14
-8 0 -33 -18 -56 -40 -22 -22 -46 -40 -53 -40 -6 0 -28 -13 -49 -30 -21 -16
-41 -30 -46 -30 -4 0 -25 -12 -46 -26 -31 -22 -41 -24 -53 -14 -8 7 -22 10
-30 6 -26 -10 -39 41 -20 80 8 17 15 44 15 58 0 14 5 26 10 26 6 0 10 17 9 38
-2 51 28 185 58 251 13 30 22 60 19 67 -2 6 -1 15 3 20 4 5 18 35 30 66 16 40
27 55 37 51 11 -4 14 2 12 23 -1 16 7 45 17 64 10 19 24 55 31 80 25 86 46
140 56 140 6 0 5 7 -2 15 -10 12 -9 15 4 15 10 0 14 5 11 10 -3 6 -1 10 4 10
6 0 11 7 11 16 0 8 14 40 30 70 17 29 27 54 23 54 -4 0 -3 4 3 8 9 6 51 121
60 166 2 10 10 26 18 35 16 18 29 55 31 91 1 14 13 48 25 75 13 28 22 56 21
64 -1 7 2 10 7 7 5 -3 15 14 22 37 8 23 21 53 31 67 9 14 27 57 40 95 13 39
29 77 36 86 7 8 13 22 13 29 0 16 23 83 30 90 3 3 12 25 19 50 7 25 17 55 22
68 5 13 9 34 9 47 0 14 4 25 8 25 4 0 9 12 10 26 1 14 9 35 17 47 8 12 15 29
15 39 0 10 4 18 10 18 5 0 7 7 3 15 -3 9 1 23 10 33 27 30 78 125 128 240 10
23 23 42 27 42 9 0 72 92 72 106 0 4 7 15 15 24 8 9 25 36 38 61 13 24 40 72
59 106 31 53 35 67 28 97 -4 19 -15 43 -24 52 -9 9 -15 21 -13 28 4 12 -45 36
-74 36 -26 0 -89 -64 -89 -90 0 -11 -5 -19 -12 -18 -6 2 -16 -14 -21 -34 -5
-22 -15 -38 -23 -38 -10 0 -14 -13 -14 -45 0 -25 -4 -45 -10 -45 -5 0 -12 -11
-16 -25 -5 -20 -11 -24 -28 -20 -11 2 -15 2 -9 -1 13 -6 -24 -58 -75 -110 -13
-13 -37 -44 -54 -70 -16 -26 -47 -66 -69 -88 -21 -23 -45 -53 -51 -68 -7 -16
-20 -28 -28 -28 -9 0 -21 -15 -28 -34 -7 -18 -37 -60 -67 -92 -30 -32 -55 -62
-55 -66 0 -3 -25 -30 -57 -60 -31 -29 -65 -64 -77 -77 -12 -13 -33 -36 -48
-50 -16 -14 -28 -31 -28 -38 0 -7 -6 -13 -13 -13 -25 0 -387 -371 -387 -397 0
-7 -9 -13 -20 -13 -11 0 -20 -4 -20 -8 0 -5 -22 -24 -50 -43 -27 -19 -50 -37
-50 -41 0 -9 -89 -96 -136 -133 -21 -16 -57 -49 -81 -73 -23 -23 -46 -42 -50
-42 -9 0 -53 -45 -53 -54 0 -10 -74 -75 -86 -76 -6 0 -19 -10 -30 -23 -12 -12
-78 -77 -147 -144 -70 -67 -127 -126 -127 -130 0 -5 -13 -17 -30 -26 -16 -10
-30 -24 -30 -31 0 -8 -14 -19 -31 -26 -17 -7 -63 -46 -103 -87 -40 -40 -76
-73 -79 -73 -4 0 -58 -51 -121 -112 -62 -62 -133 -131 -157 -154 -24 -23 -60
-59 -79 -80 -19 -22 -50 -46 -67 -53 -18 -7 -33 -19 -34 -25 -1 -16 -143 -138
-223 -191 -63 -41 -71 -44 -86 -30 -9 8 -22 15 -28 15 -16 0 -15 18 6 65 10
22 24 67 31 100 14 62 38 145 52 180 31 75 49 128 44 135 -3 5 3 24 13 42 40
71 46 84 48 107 2 13 7 27 11 30 4 3 10 20 11 36 2 17 8 32 13 33 5 2 9 14 9
27 0 12 7 28 15 35 9 7 14 21 13 30 -2 9 2 23 8 31 15 19 37 84 69 204 14 55
30 109 35 120 5 11 25 55 44 97 20 43 33 84 30 93 -4 8 1 17 10 21 9 3 13 10
10 15 -3 5 -1 9 4 9 8 0 22 48 37 128 4 17 10 32 15 32 4 0 10 17 13 38 11 72
20 107 34 128 7 12 11 28 7 37 -3 9 1 30 9 46 9 18 14 47 11 72 -2 23 1 48 7
55 6 7 8 18 5 23 -4 6 2 15 13 21 30 16 45 48 30 66 -8 10 -9 17 0 28 6 7 11
24 11 37 0 50 7 83 18 87 7 2 10 13 6 28 -4 17 -1 26 10 30 9 3 16 14 16 23 0
9 6 25 14 36 7 11 16 40 19 65 3 25 10 68 16 95 21 109 21 134 -3 160 -13 14
-27 21 -31 17 -5 -4 -5 -2 -1 5 3 6 -4 19 -16 28 -21 14 -24 14 -34 0 -6 -8
-15 -15 -20 -15 -24 0 -134 -143 -134 -173 0 -11 -20 -37 -84 -110 -9 -9 -16
-22 -16 -28 0 -6 -6 -23 -14 -37 -8 -15 -20 -42 -26 -60 -7 -17 -16 -32 -21
-32 -5 0 -9 -7 -9 -15 0 -8 -5 -15 -10 -15 -6 0 -10 -6 -8 -12 2 -7 -7 -29
-19 -49 -19 -31 -29 -58 -32 -91 -1 -5 -7 -8 -15 -8 -7 0 -16 -12 -19 -27 -8
-44 -40 -127 -50 -134 -6 -4 -7 -14 -4 -22 3 -8 -11 -34 -34 -62 -21 -26 -40
-51 -40 -56 -1 -5 -2 -12 -3 -16 -1 -5 -6 -23 -10 -41 -4 -17 -12 -32 -17 -32
-5 0 -15 -12 -22 -27 -6 -16 -14 -30 -18 -33 -14 -12 -126 -236 -122 -247 2
-6 -5 -18 -16 -25 -12 -8 -18 -17 -16 -20 3 -3 -15 -24 -40 -46 -27 -23 -41
-43 -35 -47 15 -9 2 -25 -21 -25 -10 0 -19 -7 -19 -15 0 -7 -6 -18 -13 -22 -7
-4 -23 -25 -36 -45 -12 -21 -26 -38 -30 -38 -4 0 -29 -34 -56 -75 -27 -41 -53
-75 -57 -75 -4 0 -8 -6 -8 -13 0 -8 -34 -50 -75 -93 -41 -43 -75 -83 -75 -87
0 -4 -19 -28 -42 -52 -24 -24 -50 -51 -59 -62 -9 -10 -25 -26 -35 -35 -10 -9
-36 -35 -58 -57 -21 -23 -50 -48 -65 -57 -14 -8 -36 -29 -48 -46 -26 -37 -123
-118 -140 -118 -7 0 -13 -7 -13 -15 0 -8 -6 -15 -13 -15 -7 0 -17 -8 -23 -18
-7 -10 -35 -29 -63 -42 -28 -14 -51 -28 -51 -31 0 -4 -18 -10 -40 -14 -24 -4
-40 -12 -40 -21 0 -14 -9 -17 -105 -34 -125 -21 -219 26 -272 138 -15 31 -31
60 -36 63 -4 3 -5 14 -1 23 4 11 1 21 -6 26 -8 5 -14 17 -15 27 -1 10 -5 36
-9 58 -5 28 -3 49 8 69 8 16 12 35 9 42 -3 7 8 48 24 91 16 43 30 96 32 118 1
22 6 42 11 43 6 2 7 9 4 14 -4 6 -1 16 7 22 20 15 65 113 80 169 6 26 22 58
35 72 35 38 31 66 -15 103 -64 51 -139 37 -144 -27 -1 -11 -5 -21 -9 -21 -4 0
-8 -4 -8 -10 0 -5 -13 -32 -30 -58 -19 -31 -30 -63 -30 -86 0 -26 -4 -36 -16
-36 -11 0 -15 -6 -11 -19 3 -12 -1 -22 -9 -25 -8 -3 -14 -14 -14 -25 0 -11 -5
-23 -11 -26 -6 -4 -8 -13 -5 -20 2 -7 -1 -23 -8 -37 -7 -13 -11 -29 -9 -35 3
-7 -8 -28 -23 -48 -15 -20 -24 -38 -21 -41 3 -4 -12 -29 -34 -56 -21 -27 -39
-56 -39 -64 0 -8 -28 -43 -63 -77 -35 -34 -82 -87 -104 -117 -22 -30 -59 -71
-82 -90 -23 -19 -52 -43 -64 -54 -12 -10 -21 -23 -19 -29 3 -11 -16 -27 -33
-27 -5 0 -3 5 5 10 8 5 10 10 4 10 -15 0 -30 -19 -39 -50 -10 -31 -22 -43 -71
-68 -21 -11 -49 -32 -61 -46 -13 -14 -27 -26 -33 -26 -5 0 -10 -6 -10 -13 0
-14 -27 -42 -58 -61 -72 -43 -118 -74 -140 -93 -14 -13 -29 -23 -33 -23 -5 0
-9 -6 -9 -14 0 -8 -9 -18 -20 -21 -11 -3 -20 -11 -20 -16 0 -5 -7 -9 -15 -9
-8 0 -15 -6 -15 -12 0 -7 -27 -24 -60 -38 -39 -16 -60 -31 -60 -42 0 -10 -11
-19 -29 -23 -16 -3 -32 -13 -35 -21 -3 -8 -11 -14 -18 -14 -7 0 -19 -9 -26
-20 -7 -11 -21 -20 -31 -20 -10 0 -23 -6 -29 -13 -6 -7 -26 -14 -43 -15 -18
-2 -40 -8 -49 -15 -8 -7 -35 -21 -60 -31 -25 -10 -53 -22 -62 -27 -10 -5 -25
-9 -33 -9 -8 0 -15 -5 -15 -12 0 -6 -3 -9 -6 -5 -4 3 -13 0 -21 -8 -8 -9 -34
-15 -61 -15 -26 -1 -63 -6 -82 -13 -21 -7 -57 -10 -90 -6 -30 3 -71 2 -90 -3
-52 -11 -120 -10 -120 3 0 6 -7 8 -16 5 -10 -4 -25 1 -35 10 -10 9 -27 14 -37
12 -11 -3 -49 10 -88 31 -59 32 -76 47 -125 117 -63 91 -97 192 -109 329 -7
67 -5 82 8 92 10 8 11 13 4 13 -19 0 -3 51 24 81 17 18 24 37 24 66 0 24 6 46
15 53 8 7 12 16 9 21 -3 5 1 9 8 9 9 0 14 13 15 37 1 21 6 39 12 41 6 2 11 10
11 18 0 9 4 13 9 10 5 -4 7 3 4 14 -4 14 -1 20 8 18 9 -2 15 8 17 27 2 17 10
34 18 38 17 10 34 49 39 91 2 16 8 32 12 35 5 3 25 31 45 61 20 30 52 73 73
95 20 22 43 52 51 67 8 15 25 44 39 64 13 20 27 51 31 69 4 24 15 38 40 51 33
18 44 34 23 34 -5 0 3 12 19 28 16 15 33 38 37 52 7 23 43 57 56 53 3 -1 16
16 28 38 26 46 70 95 81 92 8 -2 42 34 83 88 9 13 17 31 17 41 0 10 7 18 16
18 9 0 21 14 27 30 6 16 17 30 23 30 6 0 19 11 27 23 23 35 68 78 121 114 25
18 45 38 44 45 -2 7 7 14 20 16 13 2 26 10 29 18 3 8 11 14 19 14 8 0 14 5 14
11 0 5 3 8 8 6 4 -3 13 1 20 9 7 8 8 14 2 14 -5 0 -10 5 -10 10 0 6 7 10 15
10 8 0 15 5 15 10 0 6 8 10 18 10 10 0 25 8 34 18 33 35 66 62 77 62 6 0 11 5
11 10 0 6 -5 10 -11 10 -5 0 -8 4 -5 9 7 10 25 9 43 -2 7 -4 16 4 25 23 7 16
18 30 24 30 6 0 34 22 63 48 72 67 86 79 113 93 27 14 64 60 60 73 -2 4 5 6
14 2 10 -4 25 3 39 16 13 13 30 23 37 24 7 0 21 2 31 2 9 1 17 8 17 15 1 11
85 70 160 110 19 11 47 30 62 44 14 14 31 22 36 19 5 -3 15 1 22 9 7 8 28 15
46 15 19 0 34 5 34 10 0 6 6 10 14 10 8 0 22 7 31 16 8 9 22 13 30 10 8 -3 15
-2 15 3 0 14 80 42 101 36 10 -3 27 -2 37 4 11 6 37 11 58 13 21 1 50 8 64 15
14 6 56 17 94 23 38 6 74 14 80 18 6 3 21 5 33 4 12 -2 25 4 30 13 10 17 24
20 116 30 63 6 98 20 135 55 37 35 26 90 -23 120 -36 22 -64 25 -109 10 -67
-21 -145 -36 -158 -30 -7 4 -33 10 -58 13 -30 4 -38 3 -25 -3 16 -7 13 -9 -17
-9 -24 -1 -47 -10 -66 -26 -17 -14 -36 -25 -44 -25 -8 0 -19 -5 -25 -11 -11
-11 -66 -18 -175 -23 -32 -1 -60 -5 -63 -8 -4 -3 -33 -4 -65 -1 -32 3 -67 2
-77 -3 -21 -9 -133 -12 -127 -2 2 3 -15 5 -38 3 -24 -2 -43 -4 -43 -5 0 -7
-368 -20 -647 -23 -98 -1 -178 -5 -178 -9 0 -13 -58 -9 -63 5 -3 9 -13 9 -48
-1 -55 -16 -61 -18 -79 -25 -13 -6 -55 -3 -55 3 0 2 -38 4 -85 5 -47 2 -97 8
-112 14 -16 6 -30 6 -33 1 -3 -5 -13 -9 -23 -10 -9 0 -50 -3 -90 -5 -40 -2
-91 -6 -112 -10 -21 -4 -47 -2 -58 4 -13 7 -22 7 -30 -1 -5 -5 -52 -12 -104
-15 -232 -11 -515 -22 -643 -26 -174 -6 -265 -16 -265 -31 0 -6 -12 1 -25 17
-13 15 -28 27 -33 27 -5 0 -13 35 -19 78 -7 60 -7 84 4 109 7 18 13 48 13 67
0 20 9 59 20 87 12 29 19 58 16 65 -3 7 -2 15 3 18 4 3 13 34 21 70 7 36 17
66 22 66 4 0 7 18 6 40 -1 21 4 45 10 53 7 8 9 27 6 44 -4 18 -1 33 5 37 6 4
9 12 6 17 -4 5 -1 9 4 9 6 0 11 16 11 36 0 19 11 59 24 87 13 29 24 70 25 91
1 22 9 56 18 75 10 19 16 43 16 53 -1 10 5 18 13 18 12 0 15 11 13 48 -1 26 1
54 3 62 3 8 12 38 21 66 10 30 17 84 17 127 0 66 3 79 24 102 13 14 30 49 36
78 7 29 20 64 31 79 21 30 25 53 7 42 -7 -5 -8 -3 -3 6 4 7 8 29 7 48 -1 19 2
42 7 51 5 9 12 32 15 51 3 19 10 50 15 69 6 19 8 38 5 43 -3 5 1 17 9 26 8 9
16 22 18 27 11 27 92 145 101 145 11 0 72 42 76 53 2 4 10 7 18 7 7 0 21 11
30 25 9 14 23 25 30 25 8 0 17 6 20 14 3 8 23 17 45 21 21 4 39 11 39 16 0 5
9 9 20 9 11 0 29 9 40 20 11 11 24 20 28 20 4 0 20 10 35 23 16 12 49 29 75
38 32 10 53 26 67 47 11 17 25 31 31 32 6 0 21 9 34 20 13 11 32 20 42 20 16
0 101 50 118 69 14 16 80 61 111 75 19 9 52 27 74 41 22 13 50 28 61 34 12 5
37 26 56 45 19 20 45 36 57 36 11 0 21 5 21 10 0 6 7 10 15 10 8 0 15 5 15 10
0 6 5 10 10 10 6 0 21 11 33 24 12 14 40 34 62 45 22 12 35 21 30 21 -6 1 1 7
15 14 14 8 28 12 32 9 8 -4 30 11 88 58 57 46 135 99 147 99 7 0 13 5 13 10 0
6 7 10 16 10 9 0 29 11 46 25 16 14 35 25 42 25 8 0 31 18 52 40 22 22 44 38
51 36 6 -3 19 4 29 15 9 10 22 19 28 19 6 0 16 10 21 23 6 12 21 24 35 26 14
1 43 16 64 32 22 16 45 29 51 29 7 0 20 9 30 20 10 11 23 20 28 20 5 0 29 16
53 35 23 19 48 35 56 35 7 0 29 14 48 32 19 18 64 52 100 76 36 25 67 48 70
53 3 4 17 10 31 14 14 3 38 17 53 30 16 14 37 27 47 30 11 4 17 11 14 16 -4 5
1 9 10 9 10 0 13 5 9 13 -4 6 -4 9 1 5 9 -8 65 22 65 34 0 4 9 8 20 8 11 0 23
6 26 14 3 8 21 17 39 20 21 4 36 14 40 26 4 11 12 17 21 13 9 -3 14 1 14 11 0
9 11 21 24 26 14 5 30 18 36 30 6 12 22 25 36 30 14 6 22 14 19 20 -3 6 4 10
17 10 26 1 58 22 58 39 0 6 7 11 15 11 8 0 40 17 70 37 41 27 55 43 55 61 0
13 4 21 9 17 5 -3 17 2 25 11 9 8 16 13 16 9 0 -3 10 4 23 16 30 28 60 39 70
25 5 -8 11 -6 21 7 7 9 21 17 30 17 9 0 16 6 16 14 0 12 51 41 75 41 6 0 10
11 10 25 0 18 5 25 18 23 18 -1 27 4 80 52 14 12 32 25 41 28 9 4 16 11 16 16
0 5 9 12 19 16 12 3 18 12 15 20 -6 15 29 29 57 23 8 -2 14 5 15 17 1 29 15
56 25 49 17 -10 50 8 59 32 5 13 17 24 26 24 9 0 32 14 51 30 18 17 37 30 42
30 9 0 31 45 31 63 -1 35 -17 38 -63 11 -26 -14 -52 -35 -58 -45 -5 -11 -14
-17 -19 -14 -12 7 -29 -26 -22 -44 3 -8 0 -11 -6 -7 -6 4 -16 -2 -22 -13 -6
-11 -16 -18 -23 -15 -7 2 -26 -9 -42 -26 -16 -16 -33 -30 -38 -30 -6 0 -15 -7
-21 -15 -6 -8 -20 -17 -31 -19 -29 -6 -98 -47 -113 -68 -7 -10 -20 -18 -27
-18 -8 0 -22 -11 -31 -25 -9 -14 -22 -25 -29 -25 -7 0 -34 -20 -61 -45 -26
-25 -51 -45 -55 -45 -8 0 -69 -58 -69 -66 0 -2 8 -4 18 -4 13 -1 11 -6 -11
-25 -39 -34 -65 -35 -31 -1 14 14 13 16 -10 14 -14 -1 -26 -8 -26 -14 0 -7
-16 -15 -36 -18 -19 -4 -37 -13 -40 -21 -3 -8 -22 -19 -42 -26 -21 -6 -43 -16
-49 -22 -7 -5 -13 -6 -13 -1 0 4 -13 -7 -28 -24 -16 -18 -36 -32 -45 -32 -8 0
-35 -18 -59 -40 -23 -22 -48 -40 -55 -40 -7 0 -24 -11 -39 -25 -15 -14 -38
-25 -50 -25 -13 0 -24 -4 -24 -9 0 -5 -20 -24 -45 -42 -25 -19 -62 -49 -82
-66 -27 -24 -39 -30 -45 -20 -5 8 -8 7 -8 -5 0 -11 -8 -18 -18 -18 -10 0 -37
-20 -61 -44 -27 -28 -56 -47 -76 -50 -19 -4 -48 -20 -65 -36 -18 -17 -37 -30
-43 -30 -5 0 -43 -22 -83 -50 -40 -27 -88 -57 -105 -66 -18 -9 -41 -25 -52
-35 -12 -10 -25 -19 -29 -19 -5 0 -21 -11 -36 -25 -15 -14 -45 -34 -67 -46
-80 -41 -99 -52 -119 -71 -11 -10 -25 -18 -31 -18 -14 0 -123 -69 -110 -70 6
0 -4 -8 -22 -16 -18 -9 -35 -24 -38 -34 -3 -10 -11 -17 -18 -17 -40 1 -60 -6
-79 -28 -12 -14 -29 -25 -37 -25 -9 0 -27 -14 -40 -30 -13 -17 -29 -30 -37
-30 -7 0 -17 -6 -21 -13 -10 -16 -59 -47 -74 -47 -6 0 -27 -13 -46 -30 -18
-16 -40 -30 -47 -30 -8 0 -19 -7 -26 -15 -7 -9 -19 -14 -25 -11 -7 2 -19 -3
-27 -12 -27 -30 -57 -51 -93 -66 -19 -8 -38 -22 -41 -31 -3 -8 -12 -15 -19
-15 -8 0 -35 -17 -62 -37 -26 -20 -73 -50 -103 -66 -30 -15 -57 -32 -60 -36
-7 -10 -147 -101 -156 -101 -4 0 -33 -21 -63 -48 -85 -72 -84 -71 -145 -83
-37 -7 -77 -24 -119 -52 -34 -23 -73 -43 -87 -45 -13 -2 -22 0 -18 4 9 8 -10
27 -37 39 -17 7 -17 9 -4 12 11 3 15 11 12 24 -3 11 -1 30 5 42 6 12 16 56 22
97 6 41 17 85 25 97 8 12 15 35 15 51 0 42 28 129 44 135 9 3 12 15 9 31 -6
29 25 174 39 182 4 3 8 21 8 40 0 19 6 47 14 62 7 15 16 44 20 64 4 20 12 38
18 40 7 3 13 29 14 60 3 73 12 117 31 147 12 19 17 21 25 10 7 -10 8 1 4 33
-3 26 -1 50 4 53 6 3 10 20 10 36 0 17 5 39 11 50 5 11 15 48 20 82 11 71 27
117 41 117 5 0 9 19 7 43 -1 23 4 55 10 71 6 16 9 37 6 47 -4 11 -2 19 3 19 5
0 15 19 22 43 7 23 16 55 21 71 5 16 9 42 9 57 0 16 4 29 9 29 5 0 11 18 15
40 3 22 11 40 16 40 6 0 10 11 10 25 0 14 6 36 14 48 8 12 18 45 22 72 5 28 9
52 9 55 1 3 5 32 10 65 4 33 13 71 20 85 7 14 14 39 16 55 2 17 9 41 16 54 7
14 10 28 8 32 -3 4 2 20 10 35 8 16 15 35 15 43 0 23 33 120 39 117 3 -2 7 12
9 32 1 19 7 41 13 49 6 7 8 13 3 13 -4 0 -3 5 4 12 7 7 12 24 12 39 0 15 6 32
14 38 7 6 16 36 18 67 3 31 11 59 18 64 7 5 10 17 7 30 -6 23 10 70 25 70 5 0
8 15 6 33 -1 18 2 38 6 45 4 7 2 12 -3 12 -17 0 -13 37 4 44 8 3 15 14 15 25
0 11 5 23 10 26 6 3 10 19 10 35 0 16 5 32 11 36 6 3 9 15 6 25 -3 11 1 26 9
33 8 8 14 21 14 30 0 8 6 19 13 23 6 4 12 15 12 23 0 8 11 61 25 118 19 77 29
104 43 108 12 4 17 12 14 25 -3 10 1 23 9 30 8 6 14 20 14 31 0 10 7 32 15 48
9 17 14 30 12 30 -2 0 18 24 44 52 54 59 64 95 57 196 -4 53 -2 59 24 81 21
17 32 20 41 13 24 -20 35 3 36 75 0 44 8 95 21 132 11 33 20 66 20 74 0 7 11
36 25 64 23 49 30 71 42 135 3 15 9 25 14 22 5 -3 9 2 9 11 0 8 7 18 15 21 8
4 15 15 15 25 0 11 11 47 25 81 14 34 25 71 25 83 0 12 9 30 20 40 11 10 19
23 18 29 -1 6 6 28 15 49 9 21 19 53 23 72 3 19 10 33 14 30 4 -2 15 19 24 47
9 29 23 59 30 68 7 8 16 26 19 40 7 32 30 94 38 100 11 8 39 81 39 101 0 11 4
19 9 19 8 0 20 30 28 70 10 56 16 79 29 107 8 17 14 35 14 41 0 9 8 39 48 172
9 30 22 64 29 75 7 11 13 32 13 47 0 16 4 28 9 28 4 0 12 21 15 48 4 26 11 72
15 102 5 34 4 63 -2 75 -5 10 -11 26 -12 35 -6 39 -19 57 -50 69 -33 11 -85 6
-85 -9 0 -4 -10 -20 -22 -35 -22 -29 -104 -257 -114 -320 -5 -31 -2 -36 20
-45 22 -8 25 -14 22 -47 -6 -57 -41 -156 -57 -162 -8 -3 -14 -13 -14 -21 0 -8
-7 -15 -15 -15 -18 0 -29 42 -18 72 4 13 4 32 0 44 -8 20 -9 20 -25 4 -28 -28
-37 -51 -43 -117 -8 -71 -18 -98 -39 -98 -8 0 -15 -8 -16 -17 -1 -36 -8 -58
-34 -109 -15 -29 -28 -58 -29 -66 -1 -7 -9 -35 -18 -63 -9 -27 -19 -68 -23
-90 -4 -22 -13 -50 -21 -63 -9 -13 -13 -29 -11 -37 3 -7 -2 -25 -12 -41 -10
-16 -21 -40 -25 -54 -19 -65 -27 -98 -32 -130 -3 -19 -10 -39 -15 -44 -5 -6
-9 -20 -9 -32 0 -13 -4 -26 -10 -29 -5 -3 -10 -16 -10 -28 -1 -12 -19 -74 -41
-137 -22 -63 -45 -135 -50 -160 -21 -101 -32 -144 -45 -169 -8 -14 -14 -32
-14 -40 0 -7 -10 -34 -22 -60 -20 -45 -79 -98 -104 -93 -16 3 -32 -91 -20
-119 6 -13 14 -27 19 -30 12 -9 1 -82 -18 -119 -8 -16 -14 -33 -13 -37 2 -13
-14 -67 -26 -82 -6 -7 -16 -27 -22 -45 -83 -222 -114 -296 -147 -356 -8 -14
-20 -41 -27 -60 -25 -73 -36 -96 -63 -137 -15 -23 -33 -59 -41 -80 -8 -21 -24
-64 -35 -97 -12 -32 -27 -65 -34 -72 -28 -32 -33 -40 -30 -51 2 -6 -3 -18 -12
-27 -9 -8 -22 -35 -30 -58 -25 -77 -45 -128 -79 -201 -19 -40 -37 -88 -41
-107 -4 -19 -21 -59 -36 -89 -16 -30 -29 -59 -29 -66 0 -7 -8 -23 -19 -36 -10
-13 -21 -41 -25 -61 -4 -20 -31 -86 -61 -146 -30 -60 -55 -115 -55 -121 0 -6
-12 -30 -27 -53 -47 -70 -83 -142 -83 -166 0 -10 -7 -48 -17 -86 -12 -49 -22
-70 -35 -74 -10 -2 -18 -12 -18 -22 0 -9 -9 -25 -20 -35 -11 -10 -20 -28 -20
-41 0 -13 -4 -25 -9 -28 -4 -3 -25 -45 -47 -93 -21 -48 -50 -104 -65 -123 -14
-19 -30 -46 -34 -60 -10 -32 -76 -173 -84 -180 -10 -8 -81 -159 -81 -173 -1
-34 -56 -147 -72 -147 -4 0 -7 -3 -6 -7 3 -18 -124 -280 -152 -313 -11 -12
-17 -26 -15 -31 3 -4 1 -18 -4 -31 -9 -21 -22 -57 -26 -68 -10 -30 -26 -59
-35 -65 -6 -3 -23 -34 -39 -68 -15 -34 -39 -84 -51 -112 -13 -27 -25 -61 -27
-75 -3 -14 -12 -33 -20 -43 -18 -20 -35 -47 -59 -97 -9 -19 -27 -55 -39 -80
-12 -25 -25 -58 -29 -73 -6 -27 -60 -111 -97 -152 -10 -11 -21 -40 -25 -65 -8
-54 -45 -140 -69 -160 -10 -8 -29 -32 -42 -53 -16 -25 -33 -40 -53 -44 -17 -3
-30 -11 -30 -19 0 -7 -9 -15 -19 -19 -11 -3 -22 -13 -25 -21 -3 -8 -10 -13
-15 -10 -11 7 -101 -32 -101 -43 0 -5 -14 -14 -32 -20 -17 -6 -39 -18 -47 -25
-35 -31 -91 -16 -91 25 0 10 -4 20 -9 23 -12 8 -12 138 0 153 6 7 9 23 5 36
-3 13 -3 27 1 31 15 15 21 92 13 181 -1 22 1 63 5 90 4 28 9 75 11 105 2 30 4
57 5 60 4 10 7 56 9 155 2 73 6 105 18 118 11 12 12 17 2 17 -9 0 -11 13 -5
53 4 28 9 69 11 91 2 21 9 57 15 80 6 22 13 111 16 196 4 166 6 187 16 210 3
8 8 67 10 131 3 64 10 127 17 139 6 12 9 31 7 42 -3 11 -1 47 4 81 6 33 12 83
14 111 2 28 11 83 20 121 9 39 15 81 13 95 -1 14 2 32 7 40 5 8 8 54 6 101 -2
72 0 87 13 92 9 4 16 18 16 32 0 14 5 25 11 25 8 0 9 24 4 78 -5 64 -3 84 13
122 13 31 19 66 18 112 -1 60 1 68 18 68 16 0 18 5 13 35 -3 20 0 56 7 80 8
24 11 46 8 49 -3 4 0 6 6 6 18 0 26 60 27 200 2 152 5 177 28 211 10 13 17 42
17 64 0 22 7 74 16 115 9 41 16 99 15 128 -1 30 3 60 10 68 9 11 9 17 -1 29
-10 12 -9 20 4 40 9 13 16 35 16 49 0 14 4 28 10 31 6 3 10 22 10 41 0 19 7
49 17 67 9 18 16 52 15 77 0 25 3 49 6 55 4 5 7 26 8 45 1 19 16 73 33 120 37
101 54 185 60 303 0 17 5 26 12 22 7 -5 8 7 5 36 -4 34 -1 46 14 56 17 12 30
62 31 123 0 14 4 30 9 35 4 6 11 33 15 60 4 28 10 59 12 70 2 11 8 47 13 80
11 83 19 114 39 160 25 55 41 107 41 132 0 30 29 144 42 168 6 11 13 36 14 55
4 49 11 88 22 119 9 22 14 42 26 111 1 3 4 10 8 16 4 6 8 26 9 45 2 19 8 45
14 59 30 64 65 183 76 260 7 47 18 94 24 105 7 11 16 38 20 60 4 22 10 45 15
50 4 6 10 24 13 40 8 41 26 114 39 150 6 17 11 39 12 51 0 11 7 28 15 38 8 9
11 19 8 23 -4 3 -2 12 3 19 6 6 15 40 21 74 5 34 28 101 49 150 22 48 40 97
40 108 0 11 14 58 32 103 17 46 31 90 31 99 0 8 8 27 18 42 11 14 19 33 19 40
0 8 13 41 30 74 16 32 36 87 44 121 8 34 23 75 33 90 10 15 34 67 53 116 19
48 38 87 42 87 5 0 8 12 8 26 0 14 4 23 9 20 5 -3 14 16 21 42 7 26 18 54 25
62 7 8 37 67 68 130 30 63 65 125 76 137 12 12 21 26 21 30 0 8 36 55 72 94
11 11 13 19 6 21 -7 3 -8 10 -4 17 5 7 14 10 22 7 8 -3 14 -1 14 4 0 6 -6 10
-12 10 -8 0 -6 5 4 10 9 6 19 24 23 40 6 26 20 54 70 138 76 128 119 193 130
199 18 11 88 113 81 120 -3 3 4 15 17 27 12 12 30 38 39 59 10 20 21 37 26 37
5 0 32 28 60 63 64 78 121 136 155 161 15 10 27 25 27 32 0 8 4 14 9 14 5 0
12 9 16 19 4 13 12 18 22 14 11 -4 14 -2 9 5 -4 7 -1 12 9 12 9 0 13 5 9 11
-4 6 34 50 87 102 52 51 94 94 94 97 0 3 10 16 23 30 12 13 22 27 22 32 0 4 5
8 11 8 10 0 77 53 152 123 23 21 54 45 70 53 15 8 27 20 27 26 0 6 11 21 25
33 41 39 172 135 183 135 6 0 23 10 39 23 15 13 35 26 43 29 8 3 68 52 134
108 112 97 238 190 257 190 5 0 34 20 65 45 30 25 62 45 70 45 9 0 25 11 36
25 11 14 25 25 31 25 7 0 23 6 37 13 95 52 147 81 159 90 11 9 78 45 188 101
13 6 23 14 23 19 0 4 7 7 15 7 8 0 15 5 15 10 0 6 9 10 19 10 30 0 52 11 44
23 -3 5 -2 7 4 4 5 -3 23 1 39 9 16 9 37 17 47 19 10 2 32 11 49 20 17 8 40
15 50 15 10 0 27 8 38 18 17 16 36 26 123 67 32 15 85 34 232 82 44 15 83 31
86 35 3 5 21 11 39 13 19 3 36 8 39 13 3 5 15 8 26 6 11 -2 37 6 58 17 22 11
76 29 120 40 45 11 98 24 117 30 19 6 49 12 65 14 38 5 100 23 145 41 19 8 48
17 64 20 16 3 36 8 45 13 9 4 29 6 46 5 16 -2 34 1 40 5 9 8 52 19 152 41 23
5 60 7 82 4 23 -3 41 -1 41 4 0 6 21 13 48 17 54 9 46 8 137 30 39 10 77 21
85 25 8 4 26 3 39 -2 13 -4 33 -5 45 -1 12 4 44 8 71 9 28 1 61 5 75 9 14 3
52 6 85 5 93 -2 134 -2 368 4 119 2 215 1 213 -2 -2 -4 8 -7 22 -8 44 -1 166
-15 174 -20 4 -3 17 0 28 6 15 8 25 7 42 -4 13 -7 46 -17 73 -21 28 -4 56 -12
64 -18 11 -9 15 -9 18 1 6 16 39 15 71 -2 22 -12 51 -22 92 -30 3 -1 31 -14
63 -29 32 -15 62 -25 67 -22 5 3 29 -5 52 -19 24 -13 64 -28 90 -31 26 -4 49
-13 52 -22 3 -7 11 -13 18 -12 30 4 58 -2 58 -12 0 -5 -4 -7 -10 -4 -5 3 -10
2 -10 -3 0 -5 28 -17 62 -27 49 -14 77 -30 132 -79 39 -33 76 -67 82 -75 6 -7
24 -15 40 -17 16 -1 36 -11 44 -21 8 -10 32 -29 52 -43 21 -14 38 -28 38 -32
0 -12 91 -98 104 -98 7 0 22 -18 35 -40 12 -22 27 -38 32 -35 12 8 39 -19 39
-40 0 -9 4 -14 8 -11 4 2 14 -15 21 -40 7 -24 17 -44 22 -44 11 0 49 -37 49
-47 1 -5 11 -19 23 -33 12 -14 20 -31 19 -37 -2 -7 6 -13 17 -13 21 0 37 -32
26 -51 -4 -6 2 -13 14 -16 12 -3 22 -9 22 -14 1 -5 3 -13 4 -19 1 -5 3 -14 4
-20 0 -5 7 -10 14 -10 13 0 67 -73 67 -90 0 -5 4 -10 10 -12 5 -1 13 -34 19
-73 12 -92 15 -100 30 -119 10 -12 11 -23 3 -45 -8 -23 -7 -32 4 -42 8 -7 14
-30 14 -58 0 -26 6 -55 14 -66 16 -24 39 -160 31 -185 -3 -10 1 -24 8 -32 17
-17 27 -82 33 -225 4 -83 2 -113 -7 -113 -8 0 -9 -4 0 -13 6 -8 10 -29 9 -48
0 -19 4 -43 9 -54 8 -14 7 -54 -3 -140 -8 -66 -12 -141 -9 -166 7 -60 -11
-150 -29 -143 -11 4 -12 -4 -6 -35 5 -29 4 -41 -6 -45 -12 -5 -23 -53 -27
-123 -1 -18 -6 -33 -10 -33 -5 0 -7 -8 -6 -17 3 -21 -10 -63 -19 -63 -4 0 -8
-12 -9 -27 0 -15 -6 -29 -12 -31 -6 -2 -11 -11 -11 -20 0 -24 -31 -103 -53
-135 -11 -16 -21 -48 -23 -72 -2 -24 -12 -59 -24 -79 -11 -20 -20 -44 -20 -53
0 -9 -8 -22 -17 -29 -11 -8 -13 -13 -5 -14 6 0 12 -5 12 -11 0 -5 -4 -8 -8 -5
-4 2 -18 -19 -31 -47 -12 -29 -26 -61 -31 -72 -31 -69 -59 -149 -55 -156 3 -4
1 -10 -5 -14 -5 -3 -10 -15 -10 -26 0 -13 -4 -18 -12 -13 -7 4 -10 4 -6 0 11
-13 -18 -94 -46 -127 -14 -17 -26 -37 -26 -44 0 -8 -15 -35 -32 -62 -18 -26
-33 -58 -34 -70 0 -13 -10 -31 -21 -40 -11 -10 -18 -23 -16 -30 2 -6 -5 -18
-17 -26 -11 -8 -20 -18 -19 -23 1 -5 0 -12 -1 -16 -1 -5 -3 -11 -5 -15 -6 -22
-38 -89 -45 -93 -4 -3 -12 -15 -19 -28 -10 -19 -9 -25 5 -39 16 -16 19 -15 55
27 22 25 39 52 39 60 0 13 1 13 10 0 7 -11 11 -9 19 14 6 15 9 32 5 37 -3 5 1
9 8 9 22 0 117 205 120 260 1 8 7 21 14 28 7 7 11 19 8 27 -3 8 5 25 19 37 27
26 46 59 52 90 6 29 27 52 35 38 5 -8 9 -7 13 4 4 9 1 16 -5 16 -7 0 -7 4 1
14 7 8 14 24 16 36 2 12 16 37 30 56 14 19 21 34 16 34 -12 0 46 103 60 108 5
2 6 14 3 28 -4 17 -1 26 10 30 13 5 14 9 5 21 -10 11 -8 15 9 20 14 3 21 12
19 26 -1 12 4 22 11 23 6 1 14 2 17 3 3 0 -1 14 -10 31 -21 41 -19 59 10 66
16 4 26 14 27 28 2 33 3 39 21 80 9 21 17 48 17 60 0 11 9 45 20 74 11 30 15
50 9 47 -8 -6 -8 -2 0 14 7 11 10 21 7 21 -3 0 4 20 14 44 11 23 22 61 26 82
3 21 13 47 21 56 9 10 12 22 7 30 -12 20 -10 62 4 76 8 9 10 27 6 53 -4 25 -3
39 4 39 15 0 40 82 26 87 -13 4 -6 120 9 152 9 19 9 25 0 28 -14 5 -18 33 -5
33 4 0 7 12 8 28 0 15 2 45 3 67 2 22 0 51 -4 65 -12 44 -12 319 -1 313 6 -4
4 2 -5 13 -11 12 -19 49 -23 104 -4 47 -8 93 -9 102 -1 9 -6 14 -11 11 -5 -4
-6 10 -2 36 4 29 2 48 -8 64 -14 21 -20 42 -33 110 -3 15 -8 27 -12 27 -4 0
-7 9 -8 20 -1 11 3 20 8 20 10 0 -15 44 -38 68 -7 8 -10 18 -7 23 3 6 -1 18
-9 27 -9 9 -19 30 -23 46 -4 16 -19 36 -35 45 -22 12 -29 23 -29 48 0 24 -4
31 -14 27 -10 -4 -16 5 -21 25 -4 17 -13 31 -21 31 -8 0 -14 7 -14 16 0 8 -7
22 -15 30 -8 9 -15 23 -15 33 0 10 -16 33 -35 52 -19 19 -35 41 -35 50 0 18
-31 49 -49 49 -8 0 -10 7 -6 20 4 14 2 20 -9 20 -8 0 -32 21 -53 46 -21 25
-57 67 -80 92 -24 25 -43 50 -43 56 0 14 -51 66 -66 66 -7 0 -22 14 -34 31
-12 16 -25 28 -28 25 -3 -3 -15 9 -27 27 -26 37 -95 112 -95 102 0 -4 -8 2
-17 13 -23 26 -173 102 -200 102 -6 0 -18 9 -28 20 -10 11 -24 20 -31 20 -7 0
-26 14 -42 30 -17 17 -40 30 -51 30 -12 0 -44 11 -73 25 -28 14 -60 25 -69 25
-26 0 -69 22 -63 31 3 5 2 9 -1 9 -25 0 -152 24 -160 30 -5 4 -28 10 -50 14
-22 3 -78 13 -125 21 -47 9 -112 19 -145 24 -33 5 -67 11 -75 15 -8 3 -53 8
-100 11 -108 6 -99 6 -137 -1 -22 -4 -33 -2 -33 6 0 6 -8 9 -17 6 -16 -5 -191
-10 -203 -6 -52 18 -115 19 -180 5z m8920 -5565 c-8 -5 -17 -7 -19 -4 -3 3 1
9 9 14 8 5 17 7 19 4 3 -3 -1 -9 -9 -14z m-13709 -2849 c13 21 10 -54 -6 -141
-14 -79 -28 -135 -50 -210 -8 -25 -26 -97 -40 -160 -15 -63 -36 -140 -47 -170
-11 -30 -24 -77 -28 -105 -4 -27 -14 -72 -23 -100 -8 -27 -20 -88 -27 -135 -6
-47 -19 -93 -27 -102 -8 -9 -16 -28 -17 -42 0 -14 -4 -26 -8 -26 -5 0 -8 -17
-8 -37 0 -21 -7 -51 -15 -67 -8 -15 -15 -50 -15 -78 0 -27 -7 -62 -15 -79 -9
-16 -13 -34 -10 -40 4 -5 -1 -22 -11 -37 -10 -15 -19 -30 -19 -34 0 -4 -6 -13
-12 -19 -7 -7 -13 -18 -13 -25 0 -6 -7 -17 -15 -24 -9 -7 -13 -20 -10 -28 3
-8 -6 -58 -19 -111 -14 -53 -28 -121 -32 -151 -6 -50 -20 -96 -45 -142 -5 -10
-9 -30 -9 -46 0 -15 -4 -32 -9 -38 -5 -5 -11 -29 -14 -54 -2 -25 -14 -79 -25
-120 -22 -83 -36 -151 -34 -162 1 -3 -12 -12 -28 -19 -15 -7 -26 -17 -24 -21
7 -10 -26 -58 -40 -58 -12 0 -75 -43 -146 -101 -42 -33 -128 -79 -149 -79 -5
0 -11 -4 -13 -9 -4 -11 -143 -101 -156 -101 -5 0 -15 -7 -22 -15 -7 -8 -16
-13 -20 -10 -6 4 -51 -25 -70 -45 -3 -3 -25 -15 -50 -28 -56 -30 -97 -20 -102
25 -6 48 13 117 38 141 13 13 24 29 24 36 0 8 7 19 16 26 18 16 50 80 59 120
3 15 13 31 21 34 8 3 14 16 14 29 0 14 6 30 14 36 8 6 19 26 26 44 30 76 104
219 116 224 8 3 14 10 14 17 0 11 41 97 50 106 4 3 12 25 19 50 7 25 19 52 26
60 7 8 16 26 20 40 4 14 30 72 56 128 27 57 49 108 49 113 0 5 7 9 15 9 8 0
15 5 15 10 0 6 7 27 17 48 9 20 15 43 14 50 -1 6 3 12 9 12 5 0 10 4 10 9 0 5
10 30 22 57 12 27 22 54 22 59 1 16 68 147 92 180 12 17 25 41 29 55 4 14 24
57 45 95 20 39 40 87 44 108 4 20 12 37 17 37 6 0 9 6 6 13 -2 6 7 32 20 56
12 24 23 49 23 56 0 6 16 29 36 50 19 21 38 52 41 67 3 15 9 28 14 28 4 0 15
26 24 58 9 31 20 62 25 67 4 6 10 25 14 43 3 19 17 47 31 64 14 16 25 39 25
50 0 11 6 32 14 46 32 62 38 81 31 93 -5 7 -4 10 2 6 14 -9 40 22 49 56 3 16
12 31 19 33 7 3 10 14 7 26 -3 13 1 26 12 34 10 7 18 18 20 26 1 7 12 30 24
50 13 21 21 42 17 48 -3 5 3 10 14 10 12 0 20 3 20 8 -1 4 0 14 1 22 1 12 3
12 7 1 5 -11 7 -11 14 0z m12347 -549 c21 -12 29 -22 22 -27 -6 -4 -10 -14 -9
-23 1 -10 0 -24 -3 -32 -3 -8 -11 -33 -18 -55 -7 -22 -22 -51 -34 -65 -29 -33
-56 -76 -56 -91 0 -6 -9 -22 -20 -36 -11 -14 -17 -29 -14 -34 3 -5 0 -9 -6 -9
-6 0 -18 -17 -27 -37 -8 -21 -18 -40 -22 -43 -10 -8 -30 -42 -47 -79 -8 -19
-22 -40 -29 -48 -8 -7 -31 -47 -51 -88 -20 -41 -41 -75 -46 -75 -5 0 -6 -10
-2 -22 3 -13 3 -20 -1 -16 -10 10 -50 -43 -78 -102 -11 -25 -23 -47 -26 -50
-3 -3 -7 -14 -9 -25 -2 -11 -9 -24 -15 -30 -7 -5 -19 -23 -27 -40 -8 -16 -27
-47 -43 -67 -16 -21 -25 -38 -20 -38 4 0 2 -4 -5 -9 -7 -4 -14 -14 -15 -22 -2
-8 -17 -36 -35 -62 -17 -27 -32 -54 -32 -62 0 -19 -22 -67 -37 -83 -7 -7 -13
-18 -13 -23 0 -10 -33 -60 -61 -92 -18 -19 -40 -63 -89 -172 -17 -38 -35 -72
-38 -75 -4 -3 -16 -24 -27 -47 -11 -24 -23 -43 -27 -43 -3 0 -9 -13 -13 -30
-4 -16 -10 -30 -15 -30 -5 0 -21 -26 -37 -57 -15 -31 -35 -64 -43 -74 -52 -57
-75 -90 -107 -156 -19 -40 -39 -73 -44 -73 -5 0 -9 -11 -9 -24 0 -13 -11 -31
-25 -42 -14 -10 -25 -26 -25 -35 0 -9 -9 -24 -20 -34 -11 -10 -20 -28 -20 -39
0 -12 -13 -36 -30 -54 -16 -18 -30 -40 -30 -48 0 -8 -7 -14 -15 -14 -8 0 -15
-6 -16 -12 0 -14 -83 -78 -99 -78 -13 0 -13 42 0 76 7 18 7 31 1 37 -7 7 -6
17 1 31 7 12 11 34 9 49 -1 15 1 33 7 40 5 7 15 38 22 70 7 32 17 60 22 63 5
3 4 12 -3 20 -8 10 -8 14 0 14 12 0 43 68 38 84 -2 6 4 26 14 45 12 22 15 39
9 46 -6 7 -4 21 5 39 8 15 13 32 10 36 -3 5 -1 10 3 12 4 1 21 48 36 103 15
55 36 123 47 150 11 28 21 73 24 99 3 27 9 54 14 60 5 6 12 26 16 44 3 17 10
32 13 32 10 0 36 60 39 87 2 28 42 106 59 116 8 4 14 20 14 35 1 15 8 45 16
67 8 22 16 47 17 55 1 8 7 24 14 35 6 11 14 36 18 55 4 19 15 46 24 59 8 14
16 29 16 35 1 6 11 33 24 59 12 27 25 65 28 85 3 20 14 53 25 72 10 19 18 40
18 47 0 7 4 13 9 13 5 0 7 8 4 18 -2 10 2 24 10 31 8 6 13 21 10 31 -4 14 0
20 11 20 9 0 18 12 22 28 4 15 12 34 20 42 7 8 15 29 19 45 8 37 47 115 57
115 5 0 8 9 8 20 0 11 5 20 10 20 6 0 10 7 10 15 0 22 40 95 68 125 12 13 23
31 23 39 1 9 2 23 3 31 0 9 9 14 21 12 11 -1 32 9 48 23 15 14 31 23 36 20 5
-3 12 -1 16 5 3 5 33 10 66 10 40 0 59 4 60 13 0 7 2 8 5 1 5 -13 211 -7 234
7 24 14 102 4 138 -19z m-13095 -2235 c37 -31 37 -77 3 -192 -15 -49 -29 -118
-31 -152 -4 -58 -20 -103 -37 -103 -5 0 -8 -9 -8 -20 0 -11 -4 -28 -9 -38 -23
-45 -31 -76 -47 -196 -10 -70 -23 -134 -30 -140 -6 -7 -11 -24 -11 -39 0 -15
-6 -34 -14 -43 -7 -9 -14 -37 -16 -62 -2 -26 -8 -60 -14 -77 -5 -16 -13 -48
-16 -70 -3 -22 -10 -48 -15 -58 -5 -10 -7 -21 -4 -25 3 -3 0 -15 -7 -26 -16
-25 -39 -147 -41 -220 -1 -28 -6 -58 -11 -66 -30 -48 -55 -109 -55 -133 0 -16
-7 -35 -15 -43 -9 -9 -13 -25 -10 -37 3 -12 -1 -39 -10 -59 -8 -21 -15 -50
-15 -64 0 -15 -4 -41 -10 -58 -5 -17 -12 -47 -15 -67 -9 -58 -22 -69 -95 -74
-36 -2 -101 -7 -145 -11 -44 -4 -83 -7 -87 -6 -5 1 -8 -2 -8 -7 0 -4 -32 -7
-71 -4 -39 2 -76 -1 -83 -6 -7 -6 -59 -13 -117 -16 -57 -2 -124 -7 -149 -10
-93 -11 -156 -14 -185 -9 -26 4 -34 14 -51 57 -12 29 -22 75 -23 102 -2 58 -9
87 -24 97 -6 4 -2 17 12 34 12 15 19 35 16 45 -3 9 -2 20 4 23 5 3 9 21 10 38
2 64 4 73 21 93 10 11 24 40 30 65 7 25 21 57 31 71 10 15 19 34 19 43 0 9 7
16 15 16 9 0 15 9 15 24 0 14 5 28 11 31 5 4 9 17 7 29 -1 11 5 32 15 46 9 13
17 32 17 41 0 9 17 32 39 52 37 33 52 67 53 115 0 12 4 22 8 22 5 0 12 21 15
48 10 71 12 74 34 63 15 -9 20 -7 25 12 3 12 6 32 6 43 0 12 6 24 14 27 8 3
22 23 32 44 10 21 21 40 24 43 4 3 10 23 13 44 3 21 16 49 28 62 13 13 19 24
15 24 -5 0 -3 6 3 14 6 7 27 44 47 82 20 37 48 77 61 88 14 12 42 36 63 54 25
21 44 30 54 26 12 -5 19 0 23 15 4 15 13 21 32 21 17 0 40 13 62 33 19 19 58
41 86 50 45 15 66 30 149 108 12 11 32 22 45 24 12 3 40 18 61 35 28 23 38 27
38 15 0 -18 0 -18 36 0 30 15 95 74 126 113 22 27 26 27 61 -1z m-1135 -709
c17 -14 15 -42 -6 -80 -10 -18 -19 -51 -21 -73 -1 -22 -10 -49 -19 -60 -9 -11
-28 -42 -41 -70 -14 -27 -32 -59 -42 -70 -9 -11 -22 -38 -29 -60 -17 -56 -48
-120 -57 -120 -4 0 -7 -3 -5 -7 1 -5 -7 -8 -18 -8 -14 0 -18 5 -14 18 5 16 5
16 -9 0 -24 -29 -32 -21 -29 29 2 27 4 62 4 78 -1 17 4 64 9 105 6 41 13 104
15 140 5 62 25 100 53 100 6 0 14 6 18 13 4 6 28 23 53 36 25 14 49 31 53 38
9 15 61 9 85 -9z m-438 -231 c0 -6 8 -19 17 -29 20 -22 21 -156 3 -393 -6 -82
-12 -177 -14 -210 -3 -87 -16 -153 -32 -166 -8 -6 -14 -22 -14 -35 0 -20 -23
-63 -81 -146 -11 -15 -19 -33 -19 -41 0 -7 -11 -24 -25 -37 -14 -13 -25 -31
-25 -41 0 -10 -6 -22 -14 -26 -8 -4 -14 -12 -14 -16 0 -5 -13 -29 -30 -53 -21
-29 -36 -42 -46 -38 -9 3 -37 -1 -64 -10 -27 -9 -62 -16 -78 -16 -31 0 -129
-7 -129 -10 0 0 -27 -2 -60 -4 -33 -2 -84 -9 -113 -16 -29 -6 -62 -10 -73 -7
-10 3 -19 1 -19 -4 0 -5 -30 -9 -67 -9 -49 0 -77 -5 -99 -19 -25 -15 -57 -20
-151 -24 -66 -2 -130 -10 -142 -17 -13 -6 -25 -9 -28 -6 -4 3 -12 1 -19 -5 -9
-7 -18 -6 -32 2 -17 10 -24 10 -38 -1 -22 -19 -101 -39 -126 -32 -19 5 -101
-10 -164 -29 -17 -5 -66 -11 -110 -14 -43 -3 -97 -8 -119 -11 -22 -4 -60 -8
-85 -10 -73 -4 -90 -8 -98 -21 -6 -9 -17 -10 -45 -2 -27 7 -48 7 -70 0 -27 -9
-236 -22 -329 -21 -15 0 -47 -4 -70 -10 -24 -6 -95 -13 -158 -16 -63 -4 -119
-10 -125 -14 -12 -9 -131 -28 -212 -33 -18 -2 -35 -6 -39 -10 -4 -4 -24 -7
-45 -7 -21 0 -41 -5 -44 -10 -4 -6 -10 -8 -14 -6 -4 3 -57 -1 -117 -8 -71 -9
-118 -10 -134 -4 -16 6 -26 6 -28 -1 -5 -15 -39 -14 -48 1 -4 7 2 18 15 27 12
9 44 37 70 64 27 26 55 47 62 47 8 0 23 7 33 15 11 8 32 15 47 15 15 0 31 5
34 11 4 6 14 8 22 5 9 -4 11 -2 7 5 -4 7 -1 10 7 7 8 -3 35 8 60 23 25 15 61
30 80 34 19 4 37 12 40 17 4 7 14 6 27 -1 15 -8 23 -7 32 4 6 7 26 17 43 21
18 3 37 9 42 12 6 4 21 8 34 10 13 2 40 10 60 19 20 9 45 15 57 14 11 -1 27 5
34 13 7 9 18 16 25 16 7 0 18 7 25 15 7 8 22 15 34 15 11 1 42 2 69 3 26 1 47
5 47 10 0 4 -5 7 -11 7 -22 0 36 37 86 55 28 10 57 24 66 32 9 7 43 23 75 34
32 11 68 29 80 40 11 10 30 19 42 19 11 0 24 5 28 11 3 6 17 8 30 5 13 -4 24
-2 24 2 0 8 52 38 145 85 17 8 53 22 80 32 91 31 115 41 109 48 -3 3 3 3 14 0
13 -3 29 3 43 16 13 12 28 21 33 21 6 0 24 12 40 27 21 19 38 26 62 25 18 -2
35 2 39 8 3 5 15 10 26 10 10 0 19 4 19 8 0 12 58 31 78 25 10 -2 24 3 31 11
8 9 20 16 27 16 8 0 31 10 52 23 37 22 66 37 120 58 52 21 117 54 130 66 7 7
32 18 55 24 23 6 60 20 82 30 55 25 78 32 91 30 7 -1 25 14 42 33 29 33 32 34
68 24 34 -9 40 -8 49 8 5 11 27 36 49 56 33 32 42 36 60 26 11 -6 18 -7 13 -2
-8 8 177 103 203 104 8 0 28 16 43 35 17 21 37 35 50 35 13 0 28 5 35 12 9 9
12 9 12 0 0 -16 41 3 53 24 4 8 12 14 17 14 10 0 31 17 74 58 13 12 30 22 39
22 9 0 18 4 21 9 7 11 56 1 56 -12z m207 -342 c0 -8 -4 -15 -9 -15 -4 0 -8 7
-8 15 0 8 4 15 8 15 5 0 9 -7 9 -15z m-38 -37 c1 -5 -3 -8 -8 -8 -11 0 -21 37
-13 45 6 5 20 -19 21 -37z m-199 -718 c-8 -5 -7 -10 4 -19 11 -9 15 -9 19 1 3
7 6 -6 6 -29 1 -46 -3 -49 -44 -33 -23 9 -24 12 -14 31 8 15 8 19 0 15 -15 -9
-14 27 0 41 6 6 18 9 26 6 10 -4 11 -8 3 -13z m18677 -496 c-3 -3 -12 -4 -19
-1 -8 3 -5 6 6 6 11 1 17 -2 13 -5z"/>
<path d="M16429 18816 c-21 -15 -46 -75 -41 -98 4 -21 37 -24 49 -5 4 6 18 34
30 61 16 34 19 47 9 43 -7 -3 -17 -2 -22 3 -5 5 -16 3 -25 -4z"/>
<path d="M16363 18672 c-6 -4 -14 -17 -17 -30 -4 -12 -18 -34 -32 -47 -28 -29
-31 -45 -6 -45 25 0 52 35 45 59 -4 15 2 24 21 32 14 7 26 16 26 20 0 11 -25
18 -37 11z"/>
<path d="M16281 18521 c-33 -9 -51 -38 -31 -51 12 -8 10 -10 -8 -10 -19 0 -22
-4 -17 -21 5 -15 4 -19 -4 -15 -6 4 -11 0 -11 -9 0 -14 4 -13 30 5 17 12 30
30 30 40 0 10 7 17 16 16 21 -1 42 30 29 42 -6 5 -21 6 -34 3z"/>
<path d="M16225 18390 c-11 -4 -25 -5 -30 -3 -11 4 -63 -44 -57 -53 5 -8 -28
-64 -38 -64 -6 0 -9 -3 -9 -7 4 -25 -3 -43 -16 -43 -8 0 -15 -9 -15 -19 0 -21
-45 -74 -72 -84 -38 -14 -14 -79 30 -85 20 -3 23 0 17 17 -6 21 37 116 48 104
11 -10 36 17 30 33 -3 7 7 28 21 46 39 48 40 50 54 81 7 16 9 33 6 39 -4 6 1
8 12 4 13 -4 24 1 32 15 16 25 13 29 -13 19z"/>
<path d="M24001 18378 c-1 -10 -6 -18 -12 -18 -5 0 -7 -5 -3 -11 9 -15 28 16
20 34 -2 7 -5 4 -5 -5z"/>
<path d="M23908 18281 c-16 -19 -14 -61 3 -61 5 0 6 6 3 14 -3 8 4 16 18 21
19 6 20 8 5 12 -9 2 -15 8 -12 13 3 5 12 7 20 3 8 -3 15 0 15 6 0 18 -34 13
-52 -8z"/>
<path d="M23875 18220 c3 -5 8 -10 11 -10 2 0 4 5 4 10 0 6 -5 10 -11 10 -5 0
-7 -4 -4 -10z"/>
<path d="M23861 18114 c0 -11 3 -14 6 -6 3 7 2 16 -1 19 -3 4 -6 -2 -5 -13z"/>
<path d="M15960 18020 c0 -5 -6 -7 -14 -4 -10 4 -22 -8 -36 -35 -11 -23 -24
-41 -29 -41 -4 0 -16 -16 -27 -35 -10 -19 -22 -35 -27 -35 -4 0 -5 -4 -2 -10
3 -5 -3 -19 -14 -31 -11 -12 -23 -35 -26 -50 -4 -16 -11 -31 -16 -34 -12 -8
-12 -45 1 -45 5 0 12 11 16 24 3 14 11 23 18 20 7 -3 23 4 36 16 13 11 18 20
12 20 -6 0 -9 7 -6 15 4 8 13 15 21 15 8 0 13 6 11 12 -3 7 0 18 6 24 6 7 20
24 31 39 11 16 32 36 48 45 24 15 26 19 12 30 -8 7 -12 16 -9 21 10 17 13 49
3 49 -5 0 -9 -4 -9 -10z"/>
<path d="M15640 17580 c0 -11 -4 -20 -8 -20 -5 0 -9 -7 -9 -15 0 -8 4 -15 9
-15 4 0 8 7 8 15 0 8 6 15 14 15 21 0 31 21 15 31 -22 14 -29 11 -29 -11z"/>
<path d="M15541 17414 c0 -11 3 -14 6 -6 3 7 2 16 -1 19 -3 4 -6 -2 -5 -13z"/>
<path d="M15497 17393 c-4 -3 -7 -11 -7 -17 0 -6 5 -5 12 2 6 6 9 14 7 17 -3
3 -9 2 -12 -2z"/>
<path d="M15431 17324 c0 -11 3 -14 6 -6 3 7 2 16 -1 19 -3 4 -6 -2 -5 -13z"/>
<path d="M15404 17264 c-8 -32 -1 -38 25 -24 27 14 27 36 1 43 -15 4 -22 -1
-26 -19z"/>
<path d="M15334 17196 c-3 -9 -11 -16 -18 -16 -12 0 -40 -30 -43 -46 -1 -5 -4
-26 -8 -46 -6 -34 -5 -38 13 -38 12 0 23 9 27 20 3 11 11 20 17 20 5 0 8 6 5
13 -2 6 0 20 5 30 5 11 5 17 -2 17 -5 0 -10 5 -10 10 0 6 3 10 8 9 16 -2 52
14 52 24 0 6 -3 7 -7 4 -3 -4 -12 -2 -19 4 -10 9 -15 7 -20 -5z"/>
<path d="M15197 17045 c-39 -35 -34 -67 12 -73 24 -2 32 0 28 10 -2 7 3 21 11
31 12 13 13 23 6 34 -16 25 -26 25 -57 -2z"/>
<path d="M15125 16943 c-10 -21 -24 -45 -31 -53 -7 -9 -11 -26 -7 -38 6 -25
23 -30 23 -7 0 8 7 15 15 15 8 0 15 9 15 20 0 11 5 20 11 20 6 0 8 8 4 19 -5
16 -2 18 15 14 25 -7 27 15 3 33 -26 19 -29 18 -48 -23z"/>
<path d="M14906 16701 c-9 -9 -13 -21 -9 -24 3 -4 1 -7 -6 -7 -16 0 -81 -61
-81 -75 0 -6 16 -11 35 -11 19 0 30 3 24 7 -7 4 -1 16 15 32 14 14 26 24 26
21 0 -3 6 1 14 8 9 9 11 19 5 30 -6 11 -5 18 3 20 8 3 9 6 1 11 -6 4 -18 -2
-27 -12z"/>
<path d="M14903 16593 c-15 -5 -17 -23 -4 -23 5 0 11 7 15 15 3 8 4 15 3 14
-1 0 -8 -3 -14 -6z"/>
<path d="M14780 16552 c0 -5 7 -9 15 -9 8 0 12 4 9 9 -3 4 -9 8 -15 8 -5 0 -9
-4 -9 -8z"/>
<path d="M14699 16487 c-9 -6 -14 -18 -12 -24 3 -7 -3 -13 -11 -13 -9 0 -22
-11 -28 -25 -6 -14 -16 -25 -22 -25 -13 0 -51 -48 -51 -63 0 -5 10 -13 23 -18
19 -7 22 -5 22 16 0 18 7 26 24 31 14 3 27 12 30 19 3 8 14 11 28 8 18 -4 20
-3 12 6 -19 21 -6 49 21 43 21 -4 24 -1 21 24 -3 32 -30 42 -57 21z"/>
<path d="M14571 16291 c-8 -5 -20 -7 -28 -4 -8 3 -13 -2 -13 -16 0 -14 -5 -19
-15 -15 -8 4 -15 2 -15 -4 0 -5 12 -12 27 -15 27 -5 62 23 63 51 0 14 -1 14
-19 3z"/>
<path d="M14465 16227 c-11 -6 -26 -17 -33 -24 -7 -7 -18 -13 -23 -13 -5 0 -9
-6 -9 -12 0 -7 -18 -24 -40 -38 -22 -13 -46 -37 -53 -52 -6 -16 -23 -34 -37
-40 -14 -6 -38 -28 -55 -49 -16 -21 -42 -44 -57 -51 -15 -7 -24 -16 -22 -20 3
-4 0 -8 -5 -8 -6 0 -11 -7 -11 -16 0 -8 -4 -13 -9 -9 -10 6 -51 -32 -51 -47 0
-5 -4 -7 -9 -4 -10 6 -61 -49 -61 -65 0 -5 -8 -9 -18 -9 -10 0 -27 -10 -38
-23 -11 -12 -33 -32 -49 -44 -19 -14 -26 -25 -19 -30 7 -5 4 -14 -7 -25 -10
-9 -19 -12 -21 -7 -4 11 -68 -18 -68 -31 0 -5 -22 -22 -50 -39 -27 -17 -50
-35 -50 -40 0 -5 -16 -16 -35 -25 -19 -9 -35 -23 -35 -31 0 -14 -6 -16 -27
-14 -4 0 -10 -6 -13 -15 -3 -8 -21 -25 -40 -38 -20 -13 -36 -34 -38 -47 -3
-17 -9 -22 -23 -18 -11 3 -16 1 -13 -5 4 -6 -1 -8 -14 -4 -15 5 -26 -1 -41
-21 -11 -15 -25 -33 -30 -39 -6 -7 -8 -14 -5 -17 3 -2 -7 -7 -21 -11 -14 -4
-25 -13 -25 -21 0 -8 -8 -19 -19 -24 -10 -6 -24 -24 -31 -41 -9 -22 -15 -28
-21 -18 -17 28 -21 -5 -5 -39 17 -36 19 -37 32 -18 10 13 11 21 3 26 -8 5 -8
9 1 14 6 4 9 13 6 20 -8 22 5 25 35 10 28 -15 47 -6 34 15 -8 13 14 42 25 35
5 -3 25 11 46 30 20 19 44 35 53 35 26 0 61 29 61 51 0 11 7 19 16 19 22 0
144 81 144 96 0 7 7 14 15 18 8 3 20 17 27 31 6 14 16 25 22 25 6 0 16 10 21
22 6 12 21 25 35 29 14 3 24 11 22 18 -1 6 5 14 13 17 8 3 12 10 10 15 -7 10
40 23 53 15 11 -7 35 51 27 64 -3 5 -1 11 5 15 5 3 10 2 10 -3 0 -20 42 2 51
26 5 14 12 22 16 19 3 -4 15 3 25 16 11 12 24 23 29 23 5 1 16 2 24 3 8 0 15
10 15 21 0 11 4 20 9 20 5 0 12 9 16 19 3 11 16 23 28 27 27 8 117 99 117 118
0 9 9 12 25 8 22 -4 28 1 38 27 6 17 15 31 19 31 18 0 87 56 83 67 -2 7 -1 12
3 12 4 -1 14 -1 22 0 13 1 13 3 1 10 -11 7 -10 13 8 32 34 37 25 68 -14 46z"/>
<path d="M13398 15203 c7 -3 16 -2 19 1 4 3 -2 6 -13 5 -11 0 -14 -3 -6 -6z"/>
<path d="M24789 14585 c-11 -10 4 -74 18 -79 10 -4 13 -2 10 6 -15 43 -17 58
-7 58 6 0 8 5 5 10 -7 11 -19 13 -26 5z"/>
<path d="M24681 14564 c0 -11 3 -14 6 -6 3 7 2 16 -1 19 -3 4 -6 -2 -5 -13z"/>
<path d="M27118 13346 c-6 -10 -7 -31 -4 -47 3 -16 1 -29 -4 -29 -21 0 14 -63
54 -98 11 -9 39 -36 64 -59 25 -24 50 -43 57 -43 7 0 29 -18 49 -40 20 -22 43
-40 52 -40 8 0 13 -4 9 -9 -3 -5 4 -12 14 -16 11 -3 23 -15 26 -26 4 -10 13
-19 22 -19 8 0 29 -11 45 -25 16 -14 34 -23 38 -20 5 3 16 -9 24 -27 9 -18 36
-56 61 -83 24 -28 45 -53 45 -57 0 -4 13 -21 28 -38 36 -38 74 -109 66 -121
-3 -5 2 -9 11 -9 12 0 15 -6 11 -22 -3 -13 -3 -17 0 -10 3 6 12 12 20 12 8 0
14 5 14 11 0 5 3 8 8 6 9 -6 8 33 -2 96 -5 26 -12 47 -17 47 -5 0 -9 11 -9 25
0 13 -9 39 -20 57 -11 18 -20 40 -20 49 0 16 -43 59 -60 59 -6 0 -10 6 -10 13
-1 6 -21 32 -45 57 -25 25 -45 49 -45 54 0 5 -10 18 -22 30 -13 12 -29 33 -37
49 -8 15 -20 27 -27 27 -7 0 -24 14 -38 30 -14 17 -53 44 -87 60 -49 23 -71
41 -110 94 -59 77 -60 79 -111 80 -30 1 -43 -4 -50 -18z"/>
<path d="M14700 13229 c-19 -34 -29 -78 -21 -84 5 -2 6 -15 4 -29 -3 -13 0
-27 6 -30 6 -4 11 -2 11 4 0 6 4 9 10 5 5 -3 7 -12 4 -20 -4 -9 24 -45 75 -96
45 -45 81 -87 81 -94 0 -24 130 -142 168 -153 83 -24 119 -31 162 -33 25 -2
50 -9 56 -17 15 -20 34 -6 34 24 0 14 4 23 9 19 5 -3 12 -1 16 5 3 6 -4 10
-17 11 -13 0 -18 3 -11 5 9 4 9 11 1 30 -6 13 -15 24 -20 24 -4 0 -16 8 -26
18 -11 9 -38 32 -60 50 -23 19 -42 39 -42 44 0 24 -105 108 -134 108 -8 0 -23
10 -33 23 -10 12 -25 23 -33 25 -16 3 -26 14 -80 91 -33 47 -65 69 -127 86
-16 4 -25 0 -33 -16z"/>
<path d="M27830 12496 c0 -9 5 -16 10 -16 6 0 10 4 10 9 0 6 -4 13 -10 16 -5
3 -10 -1 -10 -9z"/>
<path d="M27870 12470 c0 -5 7 -10 16 -10 8 0 12 5 9 10 -3 6 -10 10 -16 10
-5 0 -9 -4 -9 -10z"/>
<path d="M27977 11826 c-3 -8 1 -17 9 -20 8 -3 14 1 14 9 0 20 -17 28 -23 11z"/>
<path d="M27952 11765 c0 -16 2 -22 5 -12 2 9 2 23 0 30 -3 6 -5 -1 -5 -18z"/>
<path d="M10003 4453 c-20 -8 -15 -22 20 -58 26 -26 36 -32 45 -23 19 19 14
39 -14 64 -26 25 -30 26 -51 17z"/>
<path d="M10255 3221 c-13 -41 51 -102 84 -82 9 6 -1 22 -32 57 -43 46 -45 47
-52 25z"/>
<path d="M10644 2825 c-4 -9 6 -25 27 -42 69 -59 77 -62 174 -60 l91 1 -34 17
c-19 10 -66 29 -105 43 -40 13 -89 32 -110 41 -33 14 -38 14 -43 0z"/>
</g>
</svg>
